<svg width="200" height="200" viewBox="0 0 200 200" fill="none" xmlns="http://www.w3.org/2000/svg">
<circle cx="100" cy="100" r="100" fill="#007E8F"/>
<path d="M31.3782 135.194C31.3302 135.514 31.2822 135.914 31.2662 136.33C31.2342 137.146 31.2182 139.418 31.2182 140.762C31.2182 142.522 31.4742 145.418 31.4742 146.682C31.4742 148.058 30.4342 149.114 28.3382 149.114C25.7782 149.114 24.4342 148.138 24.4342 146.442C24.4342 144.826 25.9222 143.69 28.3702 143.69C31.8902 143.69 34.5142 145.418 35.8422 146.538L34.6902 148.33C33.1702 146.89 30.8502 145.338 28.1142 145.338C26.9942 145.338 26.3702 145.77 26.3702 146.33C26.3702 146.938 26.9302 147.306 28.0342 147.306C28.8822 147.306 29.4582 147.066 29.4582 146.138C29.4582 145.178 29.2822 142.314 29.2822 140.762C29.2822 139.226 29.2982 137.194 29.2982 136.282C29.2982 135.994 29.2662 135.498 29.2022 135.194H31.3782ZM24.7382 136.682C25.8742 136.874 27.7142 137.034 28.6902 137.034C30.8662 137.034 32.9622 136.922 35.2982 136.554L35.2822 138.378C33.6502 138.602 31.1062 138.794 28.7062 138.794C27.6822 138.794 25.8262 138.65 24.7702 138.522L24.7382 136.682ZM24.6422 140.138C25.6982 140.33 27.6502 140.442 28.4982 140.442C31.4582 140.442 33.5222 140.25 35.4902 139.994L35.4742 141.882C33.2662 142.138 31.5222 142.234 28.4822 142.234C27.5382 142.234 25.7302 142.154 24.6742 142.026L24.6422 140.138ZM44.7062 135.37C44.5462 135.946 44.4502 136.49 44.3222 137.002C44.0662 138.282 43.5862 140.634 43.1062 142.122C44.4022 141.418 45.6502 141.13 47.0902 141.13C49.6662 141.13 51.3942 142.49 51.3942 144.554C51.3942 148.138 47.9222 149.45 42.7382 148.89L42.1782 146.826C45.6982 147.386 49.2342 146.97 49.2342 144.602C49.2342 143.658 48.4022 142.842 46.8342 142.842C44.9942 142.842 43.3622 143.514 42.4182 144.73C42.2422 144.954 42.1142 145.146 41.9702 145.418L40.0822 144.762C41.2662 142.426 42.1622 138.538 42.3702 136.89C42.4502 136.218 42.4662 135.802 42.4342 135.274L44.7062 135.37ZM39.1222 137.242C40.1622 137.418 41.4422 137.546 42.4342 137.546C44.4822 137.546 47.5222 137.306 50.1462 136.746L50.1942 138.666C48.1622 139.002 44.7702 139.386 42.4502 139.386C41.2342 139.386 40.0822 139.322 39.1382 139.226L39.1222 137.242ZM53.6822 139.61C54.2742 139.498 55.0742 139.274 55.6662 139.114C56.8982 138.73 60.1462 137.578 62.4982 137.578C65.3942 137.578 67.6662 139.242 67.6662 142.202C67.6662 145.834 64.2102 148.154 58.5622 148.442L57.6502 146.314C61.9542 146.218 65.3622 144.97 65.3622 142.17C65.3622 140.666 64.3382 139.514 62.4182 139.514C60.0502 139.514 56.2742 141.114 54.5942 141.834L53.6822 139.61ZM65.4262 135.258C65.8262 135.85 66.4022 136.874 66.7062 137.466L65.4102 138.01C65.0902 137.354 64.5942 136.41 64.1622 135.786L65.4262 135.258ZM67.3142 134.538C67.7462 135.146 68.3382 136.154 68.6102 136.73L67.3462 137.274C67.0102 136.602 66.4982 135.674 66.0502 135.066L67.3142 134.538ZM80.5142 136.602C80.0022 136.97 79.4742 137.386 79.1062 137.69C78.0662 138.522 75.9542 140.154 74.8822 141.082C74.0342 141.802 74.0502 141.994 74.9142 142.746C76.1142 143.754 79.1542 146.138 80.7862 147.722L78.9302 149.45C78.4822 148.938 78.0022 148.442 77.5222 147.962C76.5622 146.954 74.2102 144.938 72.7382 143.706C71.1542 142.346 71.2822 141.482 72.8822 140.154C74.1302 139.13 76.3382 137.354 77.4102 136.298C77.8742 135.85 78.3862 135.322 78.6422 134.938L80.5142 136.602ZM90.1942 135.274C89.9702 136.058 89.6342 137.706 89.5382 138.602C90.3062 137.37 91.7142 136.01 93.5062 136.01C95.7302 136.01 97.4582 138.202 97.4582 141.722C97.4582 146.25 94.6902 148.394 90.4502 149.178L89.2342 147.322C92.8022 146.778 95.2982 145.594 95.2982 141.722C95.2982 139.258 94.4662 137.882 93.1382 137.882C91.2502 137.882 89.5862 140.73 89.5222 142.826C89.4902 143.274 89.5062 143.786 89.5862 144.522L87.6182 144.666C87.5222 144.042 87.4262 143.066 87.4262 141.994C87.4262 140.49 87.6342 138.522 87.8742 136.858C87.9382 136.266 87.9862 135.626 88.0022 135.194L90.1942 135.274ZM105.074 146.602C105.074 145.37 105.074 138.746 105.074 137.402C105.074 136.826 105.026 136.042 104.914 135.466H107.41C107.346 136.042 107.266 136.73 107.266 137.402C107.266 139.162 107.282 145.418 107.282 146.602C107.282 147.05 107.346 148.17 107.426 148.826H104.914C105.026 148.202 105.074 147.226 105.074 146.602ZM106.802 139.61C108.93 140.202 112.386 141.466 113.954 142.234L113.058 144.458C111.234 143.514 108.546 142.49 106.802 141.914V139.61ZM128.082 136.778C128.082 137.274 128.498 137.69 129.01 137.69C129.506 137.69 129.938 137.274 129.938 136.778C129.938 136.266 129.506 135.85 129.01 135.85C128.498 135.85 128.082 136.266 128.082 136.778ZM127.09 136.778C127.09 135.722 127.954 134.858 129.01 134.858C130.066 134.858 130.93 135.722 130.93 136.778C130.93 137.818 130.066 138.682 129.01 138.682C127.954 138.682 127.09 137.818 127.09 136.778ZM120.61 135.866C120.546 136.346 120.498 137.066 120.498 137.53C120.498 138.506 120.498 144.394 120.498 145.594C120.498 146.298 120.818 146.474 121.538 146.602C122.018 146.682 122.674 146.698 123.378 146.698C125.058 146.698 127.634 146.506 128.962 146.154V148.49C127.442 148.714 125.026 148.81 123.266 148.81C122.226 148.81 121.25 148.746 120.562 148.634C119.186 148.378 118.37 147.626 118.37 146.234C118.37 144.394 118.37 138.522 118.37 137.53C118.37 137.162 118.322 136.346 118.258 135.866H120.61ZM119.554 140.778C121.618 140.33 124.354 139.466 126.034 138.778C126.594 138.538 127.138 138.282 127.778 137.914L128.626 139.93C128.018 140.186 127.298 140.49 126.77 140.698C124.882 141.418 121.746 142.362 119.57 142.874L119.554 140.778ZM139.426 138.634C139.73 139.306 140.514 141.402 140.738 142.138L138.834 142.794C138.626 142.026 137.922 140.09 137.538 139.258L139.426 138.634ZM145.33 139.786C145.154 140.314 145.058 140.65 144.962 140.97C144.546 142.586 143.858 144.25 142.77 145.642C141.282 147.578 139.298 148.906 137.426 149.626L135.746 147.914C137.49 147.434 139.73 146.218 141.042 144.554C142.13 143.21 142.914 141.082 143.09 139.066L145.33 139.786ZM135.714 139.466C136.114 140.282 136.898 142.234 137.202 143.13L135.25 143.85C134.994 143.002 134.178 140.858 133.794 140.17L135.714 139.466ZM161.394 138.186C161.218 138.49 160.994 138.922 160.866 139.322C160.434 140.762 159.522 142.89 158.066 144.666C156.546 146.522 154.626 147.994 151.618 149.178L149.73 147.498C152.994 146.506 154.77 145.114 156.178 143.53C157.266 142.282 158.194 140.362 158.45 139.178H153.058L153.794 137.354C154.498 137.354 157.858 137.354 158.354 137.354C158.85 137.354 159.394 137.29 159.746 137.162L161.394 138.186ZM156.178 135.642C155.794 136.202 155.378 136.938 155.202 137.274C154.114 139.21 152.21 141.466 149.906 143.034L148.114 141.706C150.914 139.994 152.322 137.93 153.106 136.554C153.346 136.17 153.682 135.434 153.826 134.874L156.178 135.642ZM175.502 137.29C175.374 137.466 175.086 137.946 174.942 138.282C174.286 139.802 173.102 141.978 171.726 143.578C169.934 145.642 167.518 147.626 165.038 148.794L163.374 147.066C165.966 146.106 168.43 144.154 169.934 142.49C170.99 141.29 171.966 139.706 172.334 138.57C171.662 138.57 167.582 138.57 166.894 138.57C166.238 138.57 165.358 138.65 165.006 138.682V136.394C165.438 136.458 166.43 136.506 166.894 136.506C167.742 136.506 171.838 136.506 172.542 136.506C173.246 136.506 173.87 136.426 174.206 136.314L175.502 137.29ZM171.934 142.25C173.582 143.594 175.854 145.978 176.894 147.258L175.07 148.842C173.886 147.194 172.142 145.29 170.43 143.738L171.934 142.25Z" fill="white"/>
<g clip-path="url(#clip0_285_59)">
<path d="M95.5439 51.9448C95.5439 48.0944 98.6713 44.9705 102.526 44.9705H116.491C120.345 44.9705 123.473 48.0944 123.473 51.9448V72.8679H129.291V62.4064C129.291 60.4739 130.848 58.9192 132.783 58.9192C134.717 58.9192 136.274 60.4739 136.274 62.4064V72.8679H139.765C143.62 72.8679 146.747 75.9919 146.747 79.8423V112.389C146.747 116.24 143.62 119.364 139.765 119.364H116.491H102.526C98.6713 119.364 95.5439 116.24 95.5439 112.389V51.9448ZM104.854 56.5944V61.244C104.854 62.5226 105.901 63.5688 107.181 63.5688H111.836C113.116 63.5688 114.163 62.5226 114.163 61.244V56.5944C114.163 55.3158 113.116 54.2696 111.836 54.2696H107.181C105.901 54.2696 104.854 55.3158 104.854 56.5944ZM107.181 68.2184C105.901 68.2184 104.854 69.2645 104.854 70.5431V75.1927C104.854 76.4714 105.901 77.5175 107.181 77.5175H111.836C113.116 77.5175 114.163 76.4714 114.163 75.1927V70.5431C114.163 69.2645 113.116 68.2184 111.836 68.2184H107.181ZM104.854 84.4919V89.1415C104.854 90.4201 105.901 91.4662 107.181 91.4662H111.836C113.116 91.4662 114.163 90.4201 114.163 89.1415V84.4919C114.163 83.2132 113.116 82.1671 111.836 82.1671H107.181C105.901 82.1671 104.854 83.2132 104.854 84.4919ZM130.455 82.1671C129.175 82.1671 128.128 83.2132 128.128 84.4919V89.1415C128.128 90.4201 129.175 91.4662 130.455 91.4662H135.11C136.39 91.4662 137.437 90.4201 137.437 89.1415V84.4919C137.437 83.2132 136.39 82.1671 135.11 82.1671H130.455ZM128.128 98.4406V103.09C128.128 104.369 129.175 105.415 130.455 105.415H135.11C136.39 105.415 137.437 104.369 137.437 103.09V98.4406C137.437 97.162 136.39 96.1158 135.11 96.1158H130.455C129.175 96.1158 128.128 97.162 128.128 98.4406ZM86.2342 68.2184C86.2342 69.0901 86.0888 69.8166 85.9433 70.5431C88.8526 72.5773 90.889 76.0645 90.889 79.8423C90.889 86.3808 85.6524 91.4662 79.252 91.4662H76.9246V114.714C76.9246 117.33 74.7426 119.364 72.2697 119.364C69.6514 119.364 67.6149 117.33 67.6149 114.714V91.4662H65.2875C58.7416 91.4662 53.6504 86.3808 53.6504 79.8423C53.6504 76.0645 55.5414 72.5773 58.4507 70.5431C58.3052 69.8166 58.3052 69.0901 58.3052 68.2184C58.3052 60.5175 64.4147 54.2696 72.2697 54.2696C79.9793 54.2696 86.2342 60.5175 86.2342 68.2184Z" fill="white"/>
</g>
<defs>
<clipPath id="clip0_285_59">
<rect width="93.0966" height="74.3933" fill="white" transform="translate(53.6504 44.9705)"/>
</clipPath>
</defs>
</svg>
