<svg width="200" height="200" viewBox="0 0 200 200" fill="none" xmlns="http://www.w3.org/2000/svg">
<path d="M100 200C126.522 200 151.957 189.464 170.711 170.711C189.464 151.957 200 126.522 200 100C200 73.4783 189.464 48.043 170.711 29.2893C151.957 10.5357 126.522 0 100 0C73.4783 0 48.043 10.5357 29.2893 29.2893C10.5357 48.043 0 73.4783 0 100C0 126.522 10.5357 151.957 29.2893 170.711C48.043 189.464 73.4783 200 100 200ZM66.3281 64.5703C69.4141 55.8594 77.6953 50 86.9531 50H109.727C123.359 50 134.375 61.0547 134.375 74.6484C134.375 83.4766 129.648 91.6406 121.992 96.0547L109.375 103.281C109.297 108.359 105.117 112.5 100 112.5C94.8047 112.5 90.625 108.32 90.625 103.125V97.8516C90.625 94.4922 92.4219 91.4062 95.3516 89.7266L112.656 79.8047C114.492 78.75 115.625 76.7969 115.625 74.6875C115.625 71.4062 112.969 68.7891 109.727 68.7891H86.9531C85.625 68.7891 84.4531 69.6094 84.0234 70.8594L83.8672 71.3281C82.1484 76.2109 76.7578 78.75 71.9141 77.0312C67.0703 75.3125 64.4922 69.9219 66.2109 65.0781L66.3672 64.6094L66.3281 64.5703ZM87.5 137.5C87.5 134.185 88.817 131.005 91.1612 128.661C93.5054 126.317 96.6848 125 100 125C103.315 125 106.495 126.317 108.839 128.661C111.183 131.005 112.5 134.185 112.5 137.5C112.5 140.815 111.183 143.995 108.839 146.339C106.495 148.683 103.315 150 100 150C96.6848 150 93.5054 148.683 91.1612 146.339C88.817 143.995 87.5 140.815 87.5 137.5Z" fill="#007E8F"/>
<path d="M58.976 166.008C58.912 166.312 58.848 167 58.832 167.4C58.752 168.664 58.704 170.392 58.704 171.88C58.704 173.624 58.8 176.392 58.8 177.32C58.8 179.288 58.096 179.832 57.04 179.832C55.488 179.832 53.28 178.488 53.28 176.792C53.28 175.24 55.28 173.608 57.504 172.824C58.928 172.312 60.544 172.056 61.76 172.056C64.224 172.056 66.176 173.336 66.176 175.544C66.176 177.448 65.184 178.872 62.64 179.496C61.904 179.656 61.184 179.704 60.528 179.768L59.808 177.688C60.512 177.688 61.216 177.688 61.76 177.576C63.056 177.352 64.096 176.696 64.096 175.544C64.096 174.44 63.136 173.816 61.744 173.816C60.384 173.816 58.976 174.104 57.728 174.6C56.288 175.144 55.264 176.008 55.264 176.696C55.264 177.208 56.016 177.64 56.432 177.64C56.72 177.64 56.928 177.512 56.928 176.952C56.928 176.12 56.848 173.896 56.848 171.96C56.848 170.136 56.864 168.152 56.864 167.416C56.864 167.096 56.816 166.296 56.768 166.008H58.976ZM63.536 167.752C64.752 168.344 66.608 169.384 67.472 169.992L66.496 171.624C65.728 170.984 63.648 169.784 62.656 169.304L63.536 167.752ZM53.712 168.632C54.656 168.744 55.344 168.744 55.92 168.744C57.584 168.744 60.08 168.44 61.728 167.96L61.776 169.944C59.968 170.36 57.392 170.648 55.984 170.648C54.928 170.648 54.304 170.632 53.76 170.568L53.712 168.632ZM73.648 173.128H79.056V178.168H73.648V176.6H77.264V174.696H73.648V173.128ZM72.832 173.128H74.608V179.08H72.832V173.128ZM70.208 168.344H74.224V169.656H70.208V168.344ZM77.632 168.344H81.68V169.656H77.632V168.344ZM80.88 166.024H82.816V178.136C82.816 179.224 82.592 179.768 81.936 180.088C81.264 180.408 80.256 180.44 78.784 180.44C78.72 179.896 78.4 178.984 78.128 178.488C79.056 178.536 80.16 178.52 80.464 178.52C80.768 178.52 80.88 178.408 80.88 178.12V166.024ZM70.368 166.024H75.424V172.024H70.368V170.552H73.632V167.496H70.368V166.024ZM81.92 166.024V167.48H78.336V170.584H81.92V172.04H76.512V166.024H81.92ZM69.264 166.024H71.168V180.44H69.264V166.024ZM88.144 167.576C88.032 168.136 87.952 169.08 87.952 169.528C87.952 170.568 87.952 171.752 88.048 172.92C88.272 175.224 88.752 176.808 89.76 176.808C90.528 176.808 91.152 174.92 91.456 173.656L93.072 175.592C92 178.392 91.008 179.352 89.728 179.352C87.952 179.352 86.432 177.784 85.984 173.496C85.824 172.024 85.808 170.136 85.808 169.16C85.808 168.728 85.792 168.04 85.68 167.544L88.144 167.576ZM96.144 167.928C97.664 169.768 98.896 173.768 99.072 176.216L96.96 177.048C96.72 174.456 95.856 170.584 94.112 168.6L96.144 167.928ZM104 170.584H112.032V172.264H104V170.584ZM103.808 178.184H112.064V179.864H103.808V178.184ZM102.96 173.864H113.152V180.472H111.184V175.56H104.848V180.472H102.96V173.864ZM107.936 167.32C106.624 169.192 104.16 171.304 101.52 172.712C101.264 172.264 100.736 171.56 100.32 171.16C103.088 169.816 105.664 167.4 106.848 165.432H108.848C110.592 167.896 113.168 169.928 115.744 170.968C115.264 171.448 114.816 172.104 114.48 172.696C112.016 171.4 109.328 169.224 107.936 167.32ZM124.176 177.512C126.976 177.08 128.992 175.944 128.992 173.448C128.992 172.2 127.984 171.048 126.384 171.048C124.336 171.048 122.624 172.216 121.056 173.864L121.072 171.608C122.976 169.8 125.008 169.176 126.72 169.176C129.168 169.176 131.12 170.92 131.12 173.48C131.12 176.728 129.088 178.648 125.12 179.432L124.176 177.512ZM120.544 170.552C119.824 170.632 118.304 170.84 117.248 170.984L117.04 168.92C117.488 168.936 117.856 168.936 118.432 168.904C119.44 168.856 121.488 168.552 122.208 168.312L122.848 169.144C122.576 169.512 122.08 170.296 121.808 170.712L120.88 173.72C120.176 174.744 118.752 176.888 117.904 178.056L116.656 176.296C117.664 175.048 119.584 172.504 120.384 171.256L120.416 170.84L120.544 170.552ZM120.352 167.464C120.352 167.016 120.368 166.536 120.272 166.04L122.608 166.104C122.336 167.384 121.808 171.576 121.808 174.44C121.808 175.736 121.808 177.096 121.904 178.584C121.92 178.872 121.984 179.464 122.016 179.816H119.824C119.856 179.48 119.872 178.888 119.872 178.632C119.888 177.08 119.904 176.008 119.952 174.008C120 172.584 120.352 168.104 120.352 167.464ZM144.24 166.456C144.192 166.712 144.16 167.416 144.144 167.832C144.112 168.92 144.112 169.832 144.08 170.648C144.048 172.072 144 173.8 143.84 174.616C143.664 175.464 143.248 175.672 142.432 175.672C141.872 175.672 140.576 175.528 140.032 175.432L140.064 173.672C140.56 173.784 141.232 173.864 141.552 173.864C141.856 173.864 142 173.816 142.048 173.496C142.128 172.888 142.16 171.736 142.192 170.632C142.192 169.8 142.192 168.872 142.192 167.928C142.192 167.512 142.128 166.76 142.08 166.456H144.24ZM137.936 166.936C137.872 167.464 137.84 167.912 137.84 168.6C137.84 170.056 137.776 174.28 137.808 175.592C137.856 177.176 137.984 177.528 140.384 177.528C141.952 177.528 143.984 177.336 145.168 177.112L145.088 179.304C144.016 179.416 142.064 179.56 140.528 179.56C136.4 179.56 135.888 178.68 135.824 175.912C135.792 174.536 135.808 169.672 135.808 168.712C135.808 168.04 135.76 167.496 135.68 166.936H137.936ZM132.592 170.552C133.04 170.552 133.776 170.52 134.592 170.424C136.208 170.28 142.224 169.688 145.312 169.496C145.744 169.464 146.368 169.416 146.848 169.384V171.336C146.56 171.32 145.712 171.352 145.296 171.352C142.8 171.432 136.576 172.104 134.72 172.312C134.224 172.376 133.232 172.52 132.8 172.584L132.592 170.552Z" fill="white"/>
</svg>
