<?xml version="1.0" encoding="UTF-8"?>
<svg id="_レイヤー_1" data-name="レイヤー 1" xmlns="http://www.w3.org/2000/svg" viewBox="0 0 248.53 241.5">
  <defs>
    <style>
      .cls-1 {
        fill: none;
        stroke-width: 9.92px;
      }

      .cls-1, .cls-2 {
        stroke: #fff;
        stroke-miterlimit: 10;
      }

      .cls-3 {
        stroke-width: 0px;
      }

      .cls-3, .cls-2 {
        fill: #fff;
      }
    </style>
  </defs>
  <polygon class="cls-2" points="83 241 7 241 7 111.85 83 94 83 241"/>
  <line class="cls-1" x1="80.82" y1="97.67" x2="111.59" y2="115.31"/>
  <polygon class="cls-2" points="191.69 241 108.5 241 108.5 84.17 191.69 62.5 191.69 241"/>
  <line class="cls-1" x1="189.41" y1="65.92" x2="245.71" y2="104.97"/>
  <path class="cls-3" d="M102,15c-1.97,0-3.84.35-5.54.98-3.56-6.54-10.49-10.98-18.46-10.98-3.81,0-7.36,1.03-10.44,2.8C62.84,2.99,56.27,0,49,0c-6.7,0-12.81,2.54-17.42,6.7-2.65-1.09-5.55-1.7-8.58-1.7C10.3,5,0,15.52,0,28.5s10.3,23.5,23,23.5c4.61,0,8.9-1.39,12.5-3.78,3.94,2.4,8.56,3.78,13.5,3.78,7.27,0,13.84-2.99,18.56-7.8,3.08,1.77,6.64,2.8,10.44,2.8,7.3,0,13.73-3.73,17.49-9.38,1.95.88,4.16,1.38,6.51,1.38,7.73,0,14-5.37,14-12s-6.27-12-14-12Z"/>
  <path class="cls-3" d="M180.72,36.45c.87-.13,1.71-.1,2.5.07,1.14-3.11,3.9-5.52,7.4-6.05,1.68-.25,3.31-.03,4.78.54,1.76-2.43,4.46-4.18,7.66-4.65,2.95-.44,5.81.27,8.11,1.8,1.1-.66,2.33-1.11,3.67-1.31,5.59-.84,10.82,3.12,11.67,8.83.85,5.71-2.99,11.02-8.58,11.86-2.03.3-4.01-.03-5.75-.84-1.58,1.31-3.52,2.23-5.7,2.55-3.2.48-6.29-.4-8.68-2.21-1.24.98-2.74,1.67-4.41,1.92-3.21.48-6.29-.74-8.32-2.98-.8.51-1.74.88-2.78,1.04-3.4.51-6.52-1.44-6.95-4.36-.44-2.92,1.97-5.7,5.37-6.2Z"/>
</svg>