<?xml version="1.0" encoding="UTF-8"?>
<svg id="_レイヤー_1" data-name="レイヤー 1" xmlns="http://www.w3.org/2000/svg" version="1.1" viewBox="0 0 200 200">
  <defs>
    <style>
      .cls-1 {
        fill: #007e8f;
      }

      .cls-1, .cls-2 {
        stroke-width: 0px;
      }

      .cls-2 {
        fill: #fff;
      }
    </style>
  </defs>
  <circle class="cls-1" cx="100" cy="100" r="100"/>
  <path class="cls-2" d="M117.3,69.5l2.7,44.8h-2c-6.5-.2-12.9,1.5-18.5,5-5.6-3.5-12-5-18.5-5s-14.8,1.9-22.2,5l5.7-46.5c5.1-2.1,11.1-3.3,16.6-3.3s13.3,2.4,18.5,7.6c5-5.1,10.6-7.5,17.7-7.6ZM150.2,130.1c-4.6,0-8.6-.9-12.7-2.8-6.2-2.8-12.6-4.5-19.4-4.5s-13.5,2.3-18.5,7.3c-5-5-11.5-7.3-18.5-7.3s-13.2,1.7-19.4,4.5c-4,1.8-8,2.8-12.4,2.8h-.3l7.7-62.8c7.1-4,15.7-6.3,23.8-6.3s13.5,1.4,19.1,5.2c5.6-3.8,12.5-5.2,19.1-5.2s16.7,2.3,23.8,6.3l7.7,62.8ZM142.4,122l-6.1-50.4c-5.5-2.5-12.1-3.8-18.2-3.8s-13.4,2.2-18.5,7c-5.1-4.8-11.6-7-18.5-7s-12.7,1.3-18.2,3.8l-6.1,50.4c8.5-3.5,14.9-6,24.3-6s12.7,1.7,18.5,5.3c5.7-3.6,11.7-5.3,18.5-5.3s15.8,2.5,24.3,6Z"/>
  <g>
    <path class="cls-2" d="M84.8,147.2h1.2v4.7c0,.7,0,1.4,0,2.2,0,.8-.1,1.6-.2,2.4-.1.8-.3,1.6-.5,2.4s-.5,1.5-.8,2.2c0,0-.2-.1-.3-.2-.1,0-.3-.1-.4-.2s-.2-.1-.3-.2c.3-.6.6-1.3.8-2.1.2-.7.3-1.5.4-2.2,0-.8.2-1.5.2-2.3,0-.7,0-1.4,0-2v-4.7ZM85.6,147.2h12.4v1.1h-12.4v-1.1ZM85.7,159.7h12.3v1.1h-12.3v-1.1ZM88.6,150.8l.7.2c-.2.5-.4,1-.7,1.5-.3.5-.6,1-.9,1.4s-.7.8-1,1.1c0-.1-.2-.2-.3-.4-.1-.1-.3-.3-.4-.3.3-.2.7-.6,1-.9s.6-.8.9-1.2c.3-.5.5-.9.7-1.4ZM86.5,150.3h5v1h-5v-1ZM87.8,156.3h1.1v4h-1.1v-4ZM88.6,148.7h1v6.7h-1v-6.7ZM89.6,151.6c0,0,.2.1.4.3.2.1.4.3.6.4.2.2.4.3.6.4.2.1.3.2.4.3l-.6.8c0-.1-.2-.2-.4-.4s-.3-.3-.5-.5c-.2-.2-.4-.3-.5-.5-.2-.2-.3-.3-.4-.4l.6-.5ZM93.9,150.8l.7.3c-.2.5-.4,1-.7,1.5-.3.5-.6,1-1,1.4-.3.4-.7.8-1,1,0-.1-.2-.2-.3-.4s-.3-.3-.4-.4c.4-.2.7-.5,1-.9.3-.4.7-.8,1-1.2.3-.4.5-.9.7-1.3ZM91.4,155.1h1.2v5.3h-1.2v-5.3ZM92,150.3h5.8v1h-5.8v-1ZM92.1,156.8h4.4v1.1h-4.4v-1.1ZM94.1,148.7h1v6.7h-1v-6.7ZM95.3,150.8c.2.4.4.9.7,1.3.3.4.6.8,1,1.1.4.3.7.6,1.1.8-.1,0-.2.2-.4.4-.1.2-.3.3-.3.4-.4-.3-.8-.6-1.2-1-.4-.4-.7-.9-1-1.4-.3-.5-.5-1-.7-1.5l.8-.2Z"/>
    <path class="cls-2" d="M106.3,146.5h1.2v6.7c0,.7,0,1.3-.1,1.9s-.3,1.2-.5,1.8-.7,1.1-1.2,1.6c-.5.5-1.2,1-2.1,1.4s-2,.8-3.3,1.1c0,0-.1-.2-.2-.3s-.2-.3-.3-.4c0-.1-.2-.3-.3-.3,1.3-.3,2.3-.6,3.1-.9.8-.4,1.5-.8,2-1.2.5-.4.8-.9,1.1-1.4.2-.5.4-1,.4-1.6,0-.5.1-1.1.1-1.7v-6.7ZM100.8,149h12.2v5.3h-12.2v-5.3ZM102.7,154.8c.5,1,1.1,1.8,1.8,2.4s1.5,1.1,2.5,1.5c.9.4,2,.6,3.2.8,1.2.2,2.6.3,4.1.3-.1.1-.2.3-.3.6s-.2.5-.2.7c-1.6,0-3-.3-4.3-.5-1.3-.2-2.4-.5-3.4-1-1-.4-1.9-1-2.6-1.7-.7-.7-1.4-1.6-1.9-2.8l1.1-.4ZM102,150.2v3h9.8v-3h-9.8Z"/>
  </g>
</svg>