<svg width="200" height="200" viewBox="0 0 200 200" fill="none" xmlns="http://www.w3.org/2000/svg">
<circle cx="100" cy="100" r="100" fill="#007E8F"/>
<path d="M29.8485 139.615C29.8035 139.915 29.7585 140.29 29.7435 140.68C29.7135 141.445 29.6985 143.575 29.6985 144.835C29.6985 146.485 29.9385 149.2 29.9385 150.385C29.9385 151.675 28.9635 152.665 26.9985 152.665C24.5985 152.665 23.3385 151.75 23.3385 150.16C23.3385 148.645 24.7335 147.58 27.0285 147.58C30.3285 147.58 32.7885 149.2 34.0335 150.25L32.9535 151.93C31.5285 150.58 29.3535 149.125 26.7885 149.125C25.7385 149.125 25.1535 149.53 25.1535 150.055C25.1535 150.625 25.6785 150.97 26.7135 150.97C27.5085 150.97 28.0485 150.745 28.0485 149.875C28.0485 148.975 27.8835 146.29 27.8835 144.835C27.8835 143.395 27.8985 141.49 27.8985 140.635C27.8985 140.365 27.8685 139.9 27.8085 139.615H29.8485ZM23.6235 141.01C24.6885 141.19 26.4135 141.34 27.3285 141.34C29.3685 141.34 31.3335 141.235 33.5235 140.89L33.5085 142.6C31.9785 142.81 29.5935 142.99 27.3435 142.99C26.3835 142.99 24.6435 142.855 23.6535 142.735L23.6235 141.01ZM23.5335 144.25C24.5235 144.43 26.3535 144.535 27.1485 144.535C29.9235 144.535 31.8585 144.355 33.7035 144.115L33.6885 145.885C31.6185 146.125 29.9835 146.215 27.1335 146.215C26.2485 146.215 24.5535 146.14 23.5635 146.02L23.5335 144.25ZM42.5085 139.78C42.3585 140.32 42.2685 140.83 42.1485 141.31C41.9085 142.51 41.4585 144.715 41.0085 146.11C42.2235 145.45 43.3935 145.18 44.7435 145.18C47.1585 145.18 48.7785 146.455 48.7785 148.39C48.7785 151.75 45.5235 152.98 40.6635 152.455L40.1385 150.52C43.4385 151.045 46.7535 150.655 46.7535 148.435C46.7535 147.55 45.9735 146.785 44.5035 146.785C42.7785 146.785 41.2485 147.415 40.3635 148.555C40.1985 148.765 40.0785 148.945 39.9435 149.2L38.1735 148.585C39.2835 146.395 40.1235 142.75 40.3185 141.205C40.3935 140.575 40.4085 140.185 40.3785 139.69L42.5085 139.78ZM37.2735 141.535C38.2485 141.7 39.4485 141.82 40.3785 141.82C42.2985 141.82 45.1485 141.595 47.6085 141.07L47.6535 142.87C45.7485 143.185 42.5685 143.545 40.3935 143.545C39.2535 143.545 38.1735 143.485 37.2885 143.395L37.2735 141.535ZM51.0885 143.755C51.6435 143.65 52.3935 143.44 52.9485 143.29C54.1035 142.93 57.1485 141.85 59.3535 141.85C62.0685 141.85 64.1985 143.41 64.1985 146.185C64.1985 149.59 60.9585 151.765 55.6635 152.035L54.8085 150.04C58.8435 149.95 62.0385 148.78 62.0385 146.155C62.0385 144.745 61.0785 143.665 59.2785 143.665C57.0585 143.665 53.5185 145.165 51.9435 145.84L51.0885 143.755ZM62.0985 139.675C62.4735 140.23 63.0135 141.19 63.2985 141.745L62.0835 142.255C61.7835 141.64 61.3185 140.755 60.9135 140.17L62.0985 139.675ZM63.8685 139C64.2735 139.57 64.8285 140.515 65.0835 141.055L63.8985 141.565C63.5835 140.935 63.1035 140.065 62.6835 139.495L63.8685 139ZM76.4085 140.935C75.9285 141.28 75.4335 141.67 75.0885 141.955C74.1135 142.735 72.1335 144.265 71.1285 145.135C70.3335 145.81 70.3485 145.99 71.1585 146.695C72.2835 147.64 75.1335 149.875 76.6635 151.36L74.9235 152.98C74.5035 152.5 74.0535 152.035 73.6035 151.585C72.7035 150.64 70.4985 148.75 69.1185 147.595C67.6335 146.32 67.7535 145.51 69.2535 144.265C70.4235 143.305 72.4935 141.64 73.4985 140.65C73.9335 140.23 74.4135 139.735 74.6535 139.375L76.4085 140.935ZM85.6485 139.69C85.4385 140.425 85.1235 141.97 85.0335 142.81C85.7535 141.655 87.0735 140.38 88.7535 140.38C90.8385 140.38 92.4585 142.435 92.4585 145.735C92.4585 149.98 89.8635 151.99 85.8885 152.725L84.7485 150.985C88.0935 150.475 90.4335 149.365 90.4335 145.735C90.4335 143.425 89.6535 142.135 88.4085 142.135C86.6385 142.135 85.0785 144.805 85.0185 146.77C84.9885 147.19 85.0035 147.67 85.0785 148.36L83.2335 148.495C83.1435 147.91 83.0535 146.995 83.0535 145.99C83.0535 144.58 83.2485 142.735 83.4735 141.175C83.5335 140.62 83.5785 140.02 83.5935 139.615L85.6485 139.69ZM104.608 146.815H108.433V148.18H104.608V146.815ZM101.008 140.485H107.593V141.91H101.008V140.485ZM99.5685 146.815H103.348V148.18H99.5685V146.815ZM95.5185 142.765H100.423V144.4H95.5185V142.765ZM97.1685 139H98.8935V153.085H97.1685V139ZM102.868 146.815H104.308C104.308 146.815 104.308 147.22 104.293 147.4C104.218 150.79 104.128 152.095 103.813 152.53C103.573 152.86 103.333 152.98 102.988 153.025C102.688 153.085 102.253 153.1 101.773 153.085C101.743 152.65 101.623 152.065 101.413 151.705C101.773 151.735 102.028 151.75 102.208 151.75C102.373 151.75 102.463 151.705 102.553 151.555C102.733 151.315 102.808 150.22 102.868 147.07V146.815ZM107.908 146.815H109.393C109.393 146.815 109.393 147.235 109.378 147.415C109.288 150.76 109.198 152.08 108.883 152.515C108.628 152.845 108.388 152.965 108.028 153.025C107.728 153.085 107.263 153.1 106.768 153.085C106.738 152.635 106.588 152.035 106.378 151.645C106.753 151.69 107.053 151.69 107.233 151.69C107.383 151.69 107.488 151.66 107.593 151.51C107.758 151.27 107.833 150.19 107.908 147.07V146.815ZM107.278 140.485H108.928C108.928 140.485 108.898 140.89 108.868 141.1C108.703 143.26 108.508 144.235 108.133 144.64C107.833 144.97 107.503 145.09 107.053 145.135C106.693 145.18 106.048 145.195 105.358 145.165C105.328 144.7 105.148 144.07 104.908 143.665C105.478 143.725 106.048 143.725 106.303 143.725C106.513 143.725 106.648 143.71 106.768 143.59C106.993 143.365 107.158 142.585 107.278 140.695V140.485ZM103.798 139H105.478C105.268 142.18 104.458 144.19 101.263 145.45C101.083 145.075 100.678 144.49 100.363 144.205C103.183 143.23 103.648 141.595 103.798 139ZM100.828 145.42H102.343C102.268 148.9 101.878 151.435 100.078 153.13C99.8835 152.785 99.4635 152.275 99.1185 152.02C100.603 150.64 100.768 148.465 100.828 145.42ZM105.778 145.375H107.338C107.263 148.885 106.858 151.36 104.998 153.055C104.803 152.695 104.353 152.17 104.008 151.915C105.553 150.55 105.733 148.42 105.778 145.375ZM118.918 140.695H120.658V144.43H118.918V140.695ZM117.148 146.11H118.708V151.66C118.708 152.335 118.573 152.68 118.108 152.875C117.643 153.07 116.998 153.085 116.098 153.085C116.038 152.71 115.843 152.185 115.663 151.81C116.173 151.84 116.758 151.84 116.923 151.84C117.103 151.825 117.148 151.78 117.148 151.615V146.11ZM121.498 138.985L123.073 139.375C122.683 139.96 122.308 140.47 121.993 140.845L120.763 140.47C121.018 140.035 121.348 139.42 121.498 138.985ZM116.833 139.435L118.093 138.985C118.438 139.405 118.813 140.005 118.963 140.41L117.628 140.89C117.508 140.5 117.163 139.885 116.833 139.435ZM121.618 146.095L122.653 145.375C123.208 145.75 123.868 146.335 124.183 146.77L123.103 147.565C122.818 147.115 122.173 146.515 121.618 146.095ZM115.183 149.665C116.413 149.56 118.168 149.41 119.923 149.215L119.953 150.505C118.333 150.7 116.668 150.895 115.348 151.045L115.183 149.665ZM119.068 145.285L119.998 146.335C118.783 146.665 117.118 146.875 115.753 146.95C115.708 146.665 115.543 146.2 115.408 145.9C116.683 145.78 118.183 145.57 119.068 145.285ZM115.768 140.38H123.973V141.58H115.768V140.38ZM116.248 142.15H123.523V143.26H116.248V142.15ZM115.303 143.875H124.288V145.165H115.303V143.875ZM115.273 147.475H124.273V148.78H115.273V147.475ZM119.968 145.465H121.468C121.423 149.455 122.083 151.765 123.073 151.765C123.313 151.765 123.448 151.375 123.508 150.535C123.793 150.82 124.228 151.03 124.543 151.18C124.333 152.62 123.853 153.16 122.923 153.16C120.673 153.16 120.043 149.905 119.968 145.465ZM122.548 148.945L123.763 149.545C122.818 151.015 121.153 152.23 119.593 152.905C119.413 152.635 119.023 152.2 118.738 151.96C120.208 151.36 121.738 150.28 122.548 148.945ZM110.968 143.605H114.958V144.955H110.968V143.605ZM111.058 139.465H114.913V140.83H111.058V139.465ZM110.968 145.645H114.958V147.01H110.968V145.645ZM110.338 141.49H115.333V142.915H110.338V141.49ZM111.793 147.73H114.928V152.26H111.793V150.85H113.488V149.14H111.793V147.73ZM110.923 147.73H112.333V152.89H110.923V147.73ZM126.118 150.88C128.803 150.805 132.973 150.655 136.753 150.49L136.693 152.14C133.018 152.35 129.058 152.53 126.358 152.635L126.118 150.88ZM126.043 146.41H138.523V148.09H126.043V146.41ZM128.713 143.53H135.748V145.18H128.713V143.53ZM129.718 147.505L131.773 148.075C131.068 149.485 130.258 151.045 129.583 152.05L128.008 151.525C128.623 150.43 129.343 148.765 129.718 147.505ZM133.438 149.05L135.028 148.225C136.378 149.38 137.773 150.955 138.463 152.095L136.798 153.1C136.168 151.96 134.728 150.25 133.438 149.05ZM132.223 140.755C131.008 142.465 128.668 144.385 126.178 145.57C125.968 145.135 125.488 144.46 125.113 144.07C127.678 142.945 130.078 140.8 131.188 139.03H133.093C134.683 141.235 137.068 142.945 139.453 143.8C139.018 144.25 138.613 144.895 138.283 145.435C136.033 144.385 133.498 142.495 132.223 140.755ZM152.068 142.99C151.603 143.26 151.123 143.53 150.568 143.8C149.638 144.265 147.763 145.15 146.383 146.035C145.138 146.845 144.298 147.715 144.298 148.75C144.298 149.83 145.348 150.415 147.433 150.415C148.963 150.415 150.988 150.175 152.323 149.86L152.308 152.02C151.018 152.23 149.443 152.395 147.493 152.395C144.493 152.395 142.228 151.555 142.228 148.975C142.228 147.07 143.623 145.735 145.408 144.565C146.833 143.62 148.723 142.69 149.638 142.165C150.208 141.835 150.628 141.58 151.018 141.265L152.068 142.99ZM144.523 139.78C145.243 141.775 146.188 143.575 146.893 144.835L145.183 145.825C144.358 144.46 143.458 142.495 142.633 140.56L144.523 139.78ZM160.258 142.525C161.128 142.615 161.983 142.66 162.898 142.66C164.728 142.66 166.603 142.51 168.163 142.18V144.04C166.588 144.28 164.698 144.4 162.898 144.415C162.013 144.415 161.158 144.385 160.273 144.325L160.258 142.525ZM165.973 140.005C165.928 140.29 165.898 140.65 165.883 140.965C165.853 141.46 165.823 142.495 165.823 143.575C165.823 146.335 166.063 148.285 166.063 149.71C166.063 151.285 165.283 152.425 163.123 152.425C161.038 152.425 159.748 151.57 159.748 149.995C159.748 148.465 161.038 147.415 163.093 147.415C165.913 147.415 167.728 148.825 168.898 149.905L167.878 151.48C166.153 149.875 164.638 148.87 162.943 148.87C162.088 148.87 161.503 149.215 161.503 149.785C161.503 150.4 162.103 150.67 162.913 150.67C163.828 150.67 164.143 150.19 164.143 149.305C164.143 148.27 163.948 145.75 163.948 143.59C163.948 142.45 163.933 141.445 163.918 140.995C163.918 140.755 163.873 140.29 163.828 140.005H165.973ZM158.653 140.155C158.533 140.455 158.353 141.235 158.293 141.505C158.068 142.51 157.573 145.81 157.573 147.31C157.573 147.595 157.588 147.985 157.633 148.285C157.843 147.76 158.098 147.25 158.308 146.74L159.238 147.475C158.818 148.72 158.323 150.235 158.158 151.06C158.113 151.27 158.068 151.6 158.083 151.75C158.083 151.915 158.083 152.17 158.098 152.38L156.403 152.5C156.103 151.465 155.803 149.74 155.803 147.715C155.803 145.45 156.253 142.615 156.433 141.46C156.493 141.04 156.553 140.455 156.568 139.99L158.653 140.155ZM175.588 147.88C175.273 145.525 178.468 145 178.468 143.545C178.468 142.63 177.748 142.12 176.563 142.12C175.648 142.12 174.898 142.54 174.163 143.305L172.933 142.18C173.893 141.07 175.213 140.335 176.818 140.335C178.993 140.335 180.583 141.355 180.583 143.35C180.583 145.54 177.298 145.81 177.538 147.88H175.588ZM176.578 151.885C175.798 151.885 175.243 151.33 175.243 150.55C175.243 149.77 175.813 149.23 176.578 149.23C177.328 149.23 177.898 149.77 177.898 150.55C177.898 151.33 177.328 151.885 176.578 151.885Z" fill="white"/>
<path d="M84.2023 58.5995C79.8042 54.1485 79.8042 46.9195 84.2023 42.4686C88.6004 38.0176 95.7211 38.0176 100.119 42.4686L102.767 45.1571L105.415 42.4686C109.813 38.0176 116.934 38.0176 121.332 42.4686C125.73 46.9195 125.73 54.1485 121.332 58.5995L106.133 74.0134C105.205 74.9544 103.994 75.4174 102.767 75.4174C101.54 75.4174 100.329 74.9544 99.4012 74.0134L84.2023 58.5995ZM144.684 88.3819C146.643 91.0405 146.075 94.7745 143.412 96.7311L124.473 110.666C120.973 113.235 116.754 114.624 112.401 114.624H88.4059H64.4706C61.8228 114.624 59.6836 112.489 59.6836 109.845V100.286C59.6836 97.6422 61.8228 95.5064 64.4706 95.5064H69.9758L76.6926 90.1294C80.0884 87.411 84.307 85.9473 88.6602 85.9473H100.374H102.767H112.341C114.989 85.9473 117.128 88.0832 117.128 90.7268C117.128 93.3705 114.989 95.5064 112.341 95.5064H102.767H100.374C99.0571 95.5064 97.98 96.5817 97.98 97.8961C97.98 99.2105 99.0571 100.286 100.374 100.286H118.415L136.321 87.1123C138.984 85.1557 142.724 85.7233 144.684 88.3819ZM88.6453 95.5064H88.5106C88.5555 95.5064 88.6004 95.5064 88.6453 95.5064Z" fill="white"/>
</svg>
