<svg width="200" height="200" viewBox="0 0 200 200" fill="none" xmlns="http://www.w3.org/2000/svg">
<circle cx="100" cy="100" r="100" fill="#007E8F"/>
<path d="M126.619 52.3341C126.619 50.8245 125.707 49.4554 124.302 48.8704C122.898 48.2853 121.295 48.6129 120.218 49.6778L115.115 54.7914C109.498 60.4082 101.879 63.5676 93.9331 63.5676H92.9149H89.17H77.9352C73.8041 63.5676 70.4453 66.926 70.4453 71.0567V82.2903C70.4453 86.421 73.8041 89.7794 77.9352 89.7794V104.758C77.9352 106.829 79.6087 108.502 81.6801 108.502H89.17C91.2414 108.502 92.9149 106.829 92.9149 104.758V89.7794H93.9331C101.879 89.7794 109.498 92.9388 115.115 98.5556L120.218 103.658C121.295 104.734 122.898 105.05 124.302 104.465C125.707 103.88 126.619 102.522 126.619 101.001V83.7296C128.796 82.6999 130.364 79.9266 130.364 76.6618C130.364 73.397 128.796 70.6238 126.619 69.594V52.3341ZM119.13 61.3092V76.6735V92.0378C112.248 85.7774 103.272 82.2903 93.9331 82.2903H92.9149V71.0567H93.9331C103.272 71.0567 112.248 67.5696 119.13 61.3092Z" fill="white"/>
<path d="M67.1084 137.932H76.0604V140.596H67.1084V137.932ZM54.1004 132.364H64.9004V134.716H54.1004V132.364ZM53.8604 141.916H64.8764V144.34H53.8604V141.916ZM53.7884 137.716H65.0924V140.092H53.7884V137.716ZM70.9964 139.084H73.7804V152.404H70.9964V139.084ZM58.1084 130.18H60.9164V133.42H58.1084V130.18ZM58.1084 139.948H60.9164V152.5H58.1084V139.948ZM65.8124 131.884L69.1724 132.82C69.1484 133.06 68.9804 133.18 68.5484 133.252V140.308C68.5484 143.884 68.0924 149.188 64.8284 152.572C64.4684 151.948 63.4124 150.964 62.7644 150.604C65.5484 147.652 65.8124 143.548 65.8124 140.26V131.884ZM73.6604 130.228L75.9644 132.316C73.5164 133.42 70.2524 134.236 67.4444 134.764C67.3004 134.14 66.8924 133.132 66.5564 132.58C69.1244 132.004 71.9564 131.14 73.6604 130.228ZM60.7004 144.436C61.4444 144.892 63.7484 146.692 64.3244 147.172L62.6684 149.236C61.8764 148.276 60.0524 146.476 59.1644 145.684L60.7004 144.436ZM55.3004 135.076L57.5084 134.548C57.9404 135.412 58.2764 136.588 58.3964 137.38L56.0444 138.004C55.9964 137.212 55.6844 135.988 55.3004 135.076ZM61.2764 134.5L63.8204 134.98C63.3644 136.084 62.9564 137.116 62.5964 137.86L60.3164 137.38C60.6524 136.564 61.0604 135.34 61.2764 134.5ZM58.1324 143.332L60.1724 144.076C58.9964 146.716 57.0044 149.476 55.0844 151.036C54.6284 150.412 53.7884 149.452 53.1884 148.996C55.0844 147.772 57.0764 145.444 58.1324 143.332ZM78.7004 132.316H97.9484V134.572H78.7004V132.316ZM79.9004 135.604H96.7004V137.668H79.9004V135.604ZM84.1724 144.796H95.0204V146.404H84.1724V144.796ZM84.1724 147.268H95.0204V148.852H84.1724V147.268ZM84.1244 149.74H95.3324V151.804H84.1244V149.74ZM77.6204 138.676H98.8844V140.932H77.6204V138.676ZM86.7404 133.972H89.7164V140.476H86.7404V133.972ZM81.7004 130.756L84.2444 129.94C84.8924 130.636 85.5164 131.596 85.7804 132.316L83.1404 133.276C82.9004 132.58 82.3004 131.5 81.7004 130.756ZM92.0684 129.916L95.2124 130.708C94.4684 131.644 93.7484 132.484 93.2444 133.06L90.7964 132.292C91.2284 131.596 91.7804 130.612 92.0684 129.916ZM82.6844 139.756L85.5404 140.452C84.1484 144.364 81.7244 147.7 78.8684 149.788C78.4364 149.212 77.3324 148.108 76.7324 147.628C79.4444 145.9 81.5804 143.044 82.6844 139.756ZM82.5644 141.892H96.8444V152.476H93.8204V143.956H85.4444V152.5H82.5644V141.892ZM110.812 143.812H119.116V145.852H110.812V143.812ZM107.86 131.62H122.188V133.684H107.86V131.62ZM108.508 134.644H121.516V136.588H108.508V134.644ZM107.116 137.596H122.932V139.66H107.116V137.596ZM110.836 146.932H119.164V148.924H110.836V146.932ZM108.724 140.596H118.996V142.684H111.388V152.548H108.724V140.596ZM118.588 140.596H121.3V149.764C121.3 151.012 121.06 151.708 120.196 152.092C119.332 152.5 118.156 152.524 116.476 152.524C116.38 151.804 116.02 150.748 115.708 150.076C116.668 150.124 117.82 150.124 118.156 150.1C118.468 150.1 118.588 150.004 118.588 149.716V140.596ZM113.5 129.988H116.356V138.268H113.5V129.988ZM103.18 129.988H105.772V152.524H103.18V129.988ZM101.116 134.74L103.132 134.98C103.084 136.996 102.7 139.876 102.22 141.748L100.108 141.028C100.636 139.372 100.972 136.684 101.116 134.74ZM105.388 133.996L107.164 133.252C107.668 134.356 108.292 135.82 108.556 136.708L106.684 137.596C106.444 136.66 105.868 135.148 105.388 133.996ZM136.732 139.276H144.076V141.556H136.732V139.276ZM135.316 130.996H144.148V133.516H137.908V152.524H135.316V130.996ZM142.684 130.996H145.348V135.532C145.348 136.756 145.108 137.476 144.172 137.86C143.236 138.244 141.94 138.268 140.164 138.268C140.068 137.524 139.708 136.492 139.372 135.796C140.548 135.844 141.868 135.844 142.204 135.844C142.588 135.82 142.684 135.748 142.684 135.484V130.996ZM139.756 140.956C140.956 144.94 143.38 148.564 146.764 150.268C146.14 150.796 145.3 151.828 144.868 152.548C141.316 150.412 138.964 146.308 137.596 141.508L139.756 140.956ZM143.236 139.276H143.74L144.196 139.156L145.924 139.78C145.06 145.252 142.852 149.908 139.252 152.572C138.82 151.924 137.98 151.084 137.356 150.604C140.644 148.324 142.636 144.172 143.236 139.828V139.276ZM124.756 132.124H133.972V134.5H124.756V132.124ZM124.588 145.66H134.236V148.084H124.588V145.66ZM123.892 136.156H134.86V138.58H123.892V136.156ZM124.372 141.364H134.5V143.788H124.372V141.364ZM128.164 130.06H130.828V137.068H128.164V130.06ZM128.164 142.372H130.828V152.452H128.164V142.372ZM131.428 138.22L133.804 138.796C133.324 139.9 132.916 140.98 132.532 141.724L130.492 141.148C130.828 140.332 131.236 139.084 131.428 138.22ZM125.404 138.796L127.54 138.268C127.996 139.156 128.428 140.404 128.524 141.148L126.268 141.772C126.172 141.004 125.812 139.756 125.404 138.796Z" fill="white"/>
</svg>
