<svg width="60" height="58" viewBox="0 0 60 58" fill="none" xmlns="http://www.w3.org/2000/svg">
<path d="M56.25 3.58365C56.25 2.1415 55.3359 0.833504 53.9297 0.274531C52.5234 -0.284443 50.918 0.0285826 49.8398 1.04591L44.7305 5.93134C39.1055 11.2975 31.4766 14.3159 23.5195 14.3159H22.5H18.75H7.5C3.36328 14.3159 0 17.5244 0 21.4708V32.2031C0 36.1494 3.36328 39.3579 7.5 39.3579V53.6676C7.5 55.6464 9.17578 57.2451 11.25 57.2451H18.75C20.8242 57.2451 22.5 55.6464 22.5 53.6676V39.3579H23.5195C31.4766 39.3579 39.1055 42.3764 44.7305 47.7425L49.8398 52.6168C50.918 53.6453 52.5234 53.9471 53.9297 53.3882C55.3359 52.8292 56.25 51.5324 56.25 50.079V33.5782C58.4297 32.5944 60 29.9448 60 26.8258C60 23.7067 58.4297 21.0572 56.25 20.0734V3.58365ZM48.75 12.1583V26.8369V41.5156C41.8594 35.5346 32.8711 32.2031 23.5195 32.2031H22.5V21.4708H23.5195C32.8711 21.4708 41.8594 18.1393 48.75 12.1583Z" fill="#DADADA"/>
</svg>
