<svg width="87" height="67" viewBox="0 0 87 67" fill="none" xmlns="http://www.w3.org/2000/svg">
<path d="M39.15 6.26118C39.15 2.80449 42.0727 0 45.675 0H58.725C62.3273 0 65.25 2.80449 65.25 6.26118V25.0447H70.6875V15.653C70.6875 13.9181 72.142 12.5224 73.95 12.5224C75.758 12.5224 77.2125 13.9181 77.2125 15.653V25.0447H80.475C84.0773 25.0447 87 27.8492 87 31.3059V60.5247C87 63.9814 84.0773 66.7859 80.475 66.7859H58.725H45.675C42.0727 66.7859 39.15 63.9814 39.15 60.5247V6.26118ZM47.85 10.4353V14.6094C47.85 15.7573 48.8287 16.6965 50.025 16.6965H54.375C55.5713 16.6965 56.55 15.7573 56.55 14.6094V10.4353C56.55 9.28742 55.5713 8.34824 54.375 8.34824H50.025C48.8287 8.34824 47.85 9.28742 47.85 10.4353ZM50.025 20.8706C48.8287 20.8706 47.85 21.8098 47.85 22.9577V27.1318C47.85 28.2797 48.8287 29.2188 50.025 29.2188H54.375C55.5713 29.2188 56.55 28.2797 56.55 27.1318V22.9577C56.55 21.8098 55.5713 20.8706 54.375 20.8706H50.025ZM47.85 35.48V39.6541C47.85 40.802 48.8287 41.7412 50.025 41.7412H54.375C55.5713 41.7412 56.55 40.802 56.55 39.6541V35.48C56.55 34.3321 55.5713 33.393 54.375 33.393H50.025C48.8287 33.393 47.85 34.3321 47.85 35.48ZM71.775 33.393C70.5788 33.393 69.6 34.3321 69.6 35.48V39.6541C69.6 40.802 70.5788 41.7412 71.775 41.7412H76.125C77.3213 41.7412 78.3 40.802 78.3 39.6541V35.48C78.3 34.3321 77.3213 33.393 76.125 33.393H71.775ZM69.6 48.0024V52.1765C69.6 53.3244 70.5788 54.2636 71.775 54.2636H76.125C77.3213 54.2636 78.3 53.3244 78.3 52.1765V48.0024C78.3 46.8545 77.3213 45.9153 76.125 45.9153H71.775C70.5788 45.9153 69.6 46.8545 69.6 48.0024ZM30.45 20.8706C30.45 21.6532 30.3141 22.3055 30.1781 22.9577C32.8969 24.7838 34.8 27.9144 34.8 31.3059C34.8 37.1758 29.9062 41.7412 23.925 41.7412H21.75V62.6118C21.75 64.9597 19.7109 66.7859 17.4 66.7859C14.9531 66.7859 13.05 64.9597 13.05 62.6118V41.7412H10.875C4.75781 41.7412 0 37.1758 0 31.3059C0 27.9144 1.76719 24.7838 4.48594 22.9577C4.35 22.3055 4.35 21.6532 4.35 20.8706C4.35 13.9572 10.0594 8.34824 17.4 8.34824C24.6047 8.34824 30.45 13.9572 30.45 20.8706Z" fill="#484848" fill-opacity="0.2"/>
</svg>
