<?xml version="1.0" encoding="UTF-8"?>
<svg id="_レイヤー_1" data-name=" レイヤー 1" xmlns="http://www.w3.org/2000/svg" version="1.1" viewBox="0 0 1952.4 557.2">
  <defs>
    <style>
      .cls-1 {
        fill: #0d7a89;
      }

      .cls-1, .cls-2 {
        stroke-width: 0px;
      }

      .cls-2 {
        fill: #fff;
      }
    </style>
  </defs>
  <circle class="cls-1" cx="278.6" cy="278.6" r="278.6"/>
  <path class="cls-2" d="M107.1,201.8c-3.1,3.9-10.2,3.4-16.3-1s-23.2-28-23.2-28c0,0,27.8,9.1,33.9,13.8s8.5,11.4,5.7,15.4l-.2-.2h0Z"/>
  <path class="cls-2" d="M93.9,249.9c-3.7,4.9-11.8,4.7-18.5,0-6.5-4.9-24.4-31.3-24.4-31.3,0,0,30.9,8.9,37.4,13.8s8.9,12.8,5.3,17.7l.2-.2h0Z"/>
  <path class="cls-2" d="M97.7,286c-2.4,5.7-3.1,10.6-3.2,13.4,0,4.1.4,7.9,1.4,14.6.4,2.8,1,5.9,1,5.9.2,1.2.4,1.8.6,2.6.8,3.5,1.8,5.9,2.2,6.5,2.4,6.9,3.4,13,3.7,15.2,2,15-8.5,29.5-10.2,31.7-6.3,8.5-13.4,12.4-15.4,13.4-10.4,5.3-19.3,3.7-22.8,3-3.2-.6-12-2.2-19.5-10.4-2.6-2.6-9.8-11.4-11-25.6-.4-4.7-1.4-18.1,7.1-29.7,1.6-2.2,8.7-11,20.1-12.2,1.2,0,12-1,20.1,7.7,1.6,1.6,5.3,5.9,6.7,13,.4,2.2,1.4,7.7-1,14-.8,2.2-2.8,7.3-7.3,9.8-2.6,1.2-5.1,1.2-7.5,1-3.2-.2-4.7-1.2-6.3-1.4,0,0-.6,0-.8-.2,0,0,1.8-1.4,3-2.2.2,0,5.1-3,6.5-6.9,1.4-4.1-.8-9.8-4.3-12.4-3.7-2.8-8.7-2.6-12.2,0-6.7,4.9-7.7,19.7-1.8,28,5.9,8.7,16.7,7.3,17.9,7.1,11.4-1.8,17.5-13.6,18.5-15.4,3.4-6.5,3.7-12.8,3.9-16.3.6-10-2.6-12.4-3.4-26.6-.4-6.7-.4-10,1-14,2.2-5.9,7.7-11.2,13-13.8h.2"/>
  <path class="cls-2" d="M280.6,310.4v-24.2h-19.6c.5-11.4,1.1-24.1,1.6-38.1.2-1.1.2-2.6.2-4.3s0-4.1.2-7h-119.3c3.5-5.5,6.9-11.4,10.2-17.8h121.7v-23.7h-110.9c3-7.7,5.7-15.5,8.1-23.5l-25.9-5.7c-3.9,14.3-9.4,28.2-16.3,41.5s-14.8,24.3-23.7,32.9c2.1,1.1,4.7,2.7,7.5,4.6,2.9,1.9,5.7,3.8,8.4,5.7,2.7,1.9,4.9,3.6,6.6,5.1,3.9-4.4,7.8-9.2,11.4-14.6-.9,9.6-2,19.6-3.3,30-.6,5-1.2,10-1.9,15h-25.1v24.2h21.9c-1.5,11.1-3.1,21.8-4.8,32-1.8,11.1-3.6,21-5.4,29.5l25.2,2c.6-3.7,1.3-7.5,1.9-11.6h79.8c-1.2,4.6-2.5,7.9-3.8,9.6-1.1,1.5-2.4,2.5-3.8,3-1.4.5-3.2.7-5.3.7s-6.1,0-10.8-.1c-4.7,0-9.9-.4-15.7-.9,1.8,3,3.3,6.5,4.6,10.6,1.2,4.1,1.9,7.8,2.1,11.1,6.1.3,11.9.5,17.6.5s10.2-.2,13.8-.7c3.9-.7,7.4-1.7,10.5-3.1s5.9-3.9,8.5-7.5c2-2.6,3.8-6.9,5.4-12.9.8-2.9,1.6-6.4,2.3-10.4h23.7v-22.7h-20.7c.8-8.3,1.6-18,2.3-29.2h20.9,0ZM208.4,286.2c.4-4.5.8-9,1.2-13.6.4-4.5.8-8.8,1.1-13.1h27c-.3,9.6-.7,18.5-1.1,26.7h-28.2ZM161.7,272.1c.5-4.3,1-8.5,1.5-12.6h24.8c-.3,4.1-.6,8.3-.9,12.6-.4,4.7-.8,9.4-1.2,14.1h-25.9c.6-4.7,1.1-9.4,1.7-14.1h0ZM183.4,310.4c-.7,6-1.3,11.8-2,17.4-.5,4.1-1,8-1.5,11.7h-26.9c1.4-9.3,2.8-19,4.1-29.2h26.4ZM233,337.6c0,.7-.1,1.3-.2,2h-30c.5-3.6.9-7.4,1.4-11.4.7-5.7,1.3-11.7,1.9-17.8h29.1c-.7,10.6-1.5,19.7-2.3,27.2h0Z"/>
  <polygon class="cls-2" points="399.5 332.5 346.4 151.3 293.2 332.5 341.1 332.5 331.7 409.1 361 409.1 351.6 332.5 399.5 332.5"/>
  <polygon class="cls-2" points="508.4 332.5 455.3 151.3 402.1 332.5 450 332.5 440.6 409.1 470 409.1 460.6 332.5 508.4 332.5"/>
  <g>
    <path class="cls-1" d="M583.7,147.5l9.8-12.8c2.8,1.1,5.8,2.4,8.8,3.9,3.1,1.5,6,3.1,8.8,4.9,2.8,1.8,5,3.4,6.8,5l-10.2,14.1c-1.7-1.7-3.8-3.4-6.5-5.3-2.7-1.8-5.5-3.6-8.6-5.3-3.1-1.7-6-3.2-8.8-4.4ZM586.5,220.7c2.1-3.9,4.4-8.4,6.9-13.6,2.5-5.2,5-10.6,7.5-16.5,2.5-5.8,4.9-11.6,7-17.4l14,9.8c-1.8,5.2-3.9,10.5-6.1,15.9-2.2,5.4-4.4,10.8-6.7,16.2-2.3,5.3-4.5,10.4-6.8,15.2l-15.9-9.6ZM590.4,108.5l9.8-12.8c2.8,1.2,5.8,2.6,8.9,4.2,3.1,1.7,6.1,3.4,8.9,5.1,2.8,1.8,5.1,3.5,6.7,5.3l-10.4,13.9c-1.7-1.7-3.8-3.4-6.5-5.3-2.7-1.9-5.5-3.8-8.6-5.6-3.1-1.8-6-3.4-8.8-4.7ZM642.3,94.5l17.2,3.8c-2.8,9.6-6.5,18.9-11,27.7-4.5,8.8-9.4,16.2-14.7,22-1.1-1-2.5-2.1-4.3-3.4-1.8-1.3-3.6-2.5-5.5-3.7-1.9-1.2-3.6-2.2-5-2.8,5.3-5.1,9.9-11.5,13.9-19.3,4-7.8,7.2-15.9,9.4-24.4ZM621.8,165.1h100.3v15.9h-100.3v-15.9ZM639.6,136.4h16c-.7,6.7-1.5,13.8-2.3,21.1-.9,7.4-1.8,14.7-2.7,22-.9,7.3-1.9,14.2-2.8,20.9-1,6.6-1.9,12.5-2.8,17.8l-16.6-1.2c1.1-5.3,2.1-11.2,3.2-17.8,1.1-6.6,2.1-13.5,3.1-20.7,1-7.2,1.9-14.4,2.8-21.6.9-7.2,1.6-14,2.2-20.6ZM640.3,196.3h80.2v14.9h-80.2v-14.9ZM642.2,111.3h76.9v15.6h-76.9v-15.6ZM646.6,136.4h54.3v15h-54.3v-15ZM667.3,141.9h15.2c-.4,5.1-.8,10.4-1.2,16-.4,5.6-.9,11.2-1.5,16.8-.6,5.6-1.2,10.9-1.8,15.8-.6,5-1.2,9.4-1.8,13.4h-14.9c.6-4.1,1.2-8.7,1.8-13.7.6-5.1,1.2-10.4,1.8-15.9.6-5.5,1.1-11.1,1.5-16.6.4-5.5.7-10.8,1-15.8ZM696,136.4h16.2c0,1.8-.1,3.4-.1,4.5s0,2-.1,2.6c-.5,13.8-1,25.5-1.6,35.1-.6,9.6-1.2,17.5-2,23.6-.7,6.2-1.6,11-2.6,14.5-1,3.5-2,6-3.2,7.6-1.7,2.3-3.4,3.9-5.3,4.8-1.8.9-4,1.5-6.4,1.9-2.2.4-5,.6-8.2.6s-6.7,0-10.3-.1c0-2.1-.5-4.6-1.3-7.3-.8-2.7-1.8-5.1-2.9-7,3.2.2,6.1.3,8.8.4,2.6,0,4.7.1,6.1.1s2.2-.1,3-.4c.8-.3,1.6-.9,2.3-1.9,1-1.1,1.8-3.2,2.6-6.4.7-3.2,1.4-7.8,2-13.6.6-5.9,1.2-13.4,1.7-22.5.5-9.1,1-20.2,1.5-33.1v-3.4Z"/>
    <path class="cls-1" d="M754.5,135.8l11.2,4.1c-1.4,6-3,12.2-5,18.5-2,6.3-4.2,12.4-6.6,18.5-2.4,6-5.1,11.6-7.9,16.8-2.9,5.2-5.9,9.6-9.1,13.4-.8-2.5-2.1-5.4-3.9-8.7-1.8-3.3-3.5-6.1-4.8-8.4,2.9-3.2,5.7-6.9,8.3-11.2,2.6-4.2,5.1-8.8,7.4-13.6,2.3-4.9,4.4-9.8,6.2-14.7,1.8-5,3.2-9.8,4.3-14.6ZM732.3,125h59.5v16.5h-59.5v-16.5ZM755.5,94.5h17.1v137h-17.1V94.5ZM772.4,143.7c.9.8,2.1,2,3.6,3.7,1.6,1.7,3.3,3.6,5.1,5.7,1.8,2.1,3.7,4.2,5.5,6.3,1.8,2.1,3.5,4,5,5.7,1.5,1.7,2.5,2.9,3.2,3.8l-10.9,15.2c-1.2-2.2-2.6-4.8-4.4-7.7-1.8-2.9-3.6-5.8-5.7-8.8-2-3-4-5.8-5.9-8.5-1.9-2.7-3.5-4.9-4.7-6.6l9.2-8.9ZM820.3,132.9l12.7,4.4c-1.9,6.9-4.2,13.9-6.8,20.9-2.6,7-5.5,13.8-8.8,20.3-3.3,6.6-6.7,12.7-10.4,18.3-3.7,5.6-7.6,10.5-11.8,14.6-1-2.5-2.5-5.3-4.4-8.3-2-3-3.8-5.6-5.5-7.7,3.9-3.6,7.6-7.8,11.2-12.6,3.5-4.8,6.9-10,9.9-15.5,3.1-5.5,5.8-11.2,8.1-17s4.3-11.6,5.8-17.4ZM796.3,125h67.5v16.5h-67.5v-16.5ZM820.4,94.5h17.6v137h-17.6V94.5ZM839.1,132.9c2,7.6,4.6,15.2,7.6,22.8,3,7.6,6.4,14.8,10.1,21.4,3.7,6.7,7.6,12.3,11.6,17-2,1.6-4.4,3.6-6.9,6.2-2.6,2.6-4.6,5-6.2,7.4-3.9-5.5-7.6-12.2-11.1-20.1-3.5-7.8-6.7-16.2-9.5-25-2.8-8.8-5.2-17.6-7.1-26.4l11.5-3.4Z"/>
    <path class="cls-1" d="M881.7,100.9h125.3v130.5h-18.4v-113.8h-89.4v113.8h-17.5V100.9ZM892,208.9h103.6v16.8h-103.6v-16.8ZM904.7,136h79.3v14.7h-79.3v-14.7ZM911.6,160.6l12.1-6.6c2.2,2.3,4.4,4.9,6.5,7.7,2.1,2.8,4,5.6,5.8,8.4,1.8,2.8,3.1,5.3,3.9,7.7l-13,7.3c-.8-2.2-2-4.8-3.6-7.7-1.6-2.9-3.4-5.8-5.5-8.7s-4.1-5.6-6.3-8.2ZM951.7,121.5h16.2v67.1c0,4-.5,7.1-1.5,9.3-1,2.2-2.8,3.9-5.4,5-2.5,1.1-5.7,1.7-9.5,2-3.8.2-8.4.4-13.7.4-.3-2-.9-4.5-1.8-7.3-.9-2.8-1.8-5.3-2.8-7.3,3.2,0,6.4.1,9.5.1h6.1c1.1,0,1.8-.2,2.2-.5.4-.3.6-1,.6-2v-66.8Z"/>
    <path class="cls-1" d="M1020.1,193.6c4-1.5,8.7-3.2,14-5.3,5.3-2.1,11-4.4,17-6.9,6-2.5,11.9-5,17.9-7.4l3.9,15.5c-7.8,3.9-15.7,7.7-23.7,11.5-8,3.8-15.4,7.2-22.1,10.2l-7-17.5ZM1022,128.5h48.3v16.6h-48.3v-16.6ZM1039,96.7h16.3v96.7h-16.3v-96.7ZM1064,153.5l75.6-32.2,6.3,15-75.4,32.7-6.4-15.5ZM1078.4,108.8h16.6v94.5c0,2.8.2,4.9.7,6.3.4,1.4,1.4,2.4,2.9,2.8,1.5.5,3.7.7,6.6.7h28.4c2.6,0,4.6-.5,6-1.5,1.4-1,2.4-2.8,3.1-5.4.7-2.6,1.2-6.5,1.6-11.5,1.8,1.4,4.3,2.7,7.2,3.9,3,1.2,5.7,2.1,8.1,2.6-.8,6.9-2,12.3-3.6,16.3-1.7,4-4.1,6.9-7.4,8.6-3.3,1.8-7.8,2.6-13.4,2.6h-31.2c-6.6,0-11.8-.7-15.5-2.2-3.7-1.5-6.3-4-7.8-7.7-1.5-3.7-2.2-8.9-2.2-15.6v-94.5ZM1107.2,94.7h16.3v103h-16.3v-103ZM1136.2,123.1h-1.2l3.1-2.2,3.2-2,12.1,4.4-.6,2.9c0,6.9,0,13.2,0,18.9,0,5.7,0,10.7-.1,15,0,4.3-.1,7.9-.3,10.9-.1,2.9-.3,5.1-.5,6.6-.2,3.4-.9,6.1-2.2,7.9-1.3,1.9-3,3.3-5.3,4.3-2.1,1-4.6,1.6-7.5,1.8-2.9.2-5.5.3-7.8.3-.2-2.2-.6-4.8-1.3-7.7-.7-2.9-1.5-5.2-2.3-7.1,1.3,0,2.6.2,3.9.2,1.4,0,2.4,0,3.1,0s1.6-.2,2.1-.6c.5-.4.9-1.3,1.1-2.6,0-.7.2-2.2.3-4.7,0-2.4.1-5.7.1-9.8s0-9.2,0-15.3c0-6.1,0-13.1,0-21.2Z"/>
    <path class="cls-1" d="M659.4,275.7c-.2,1.5-.4,3.1-.5,4.9-.1,1.8-.3,3.6-.4,5.5,0,1.9-.2,4.5-.3,7.8,0,3.3-.1,6.8-.1,10.7v21.9c0,4.1,0,8.6.3,13.6.2,5,.5,10.1.8,15.2.3,5.1.6,9.9.9,14.3.2,4.4.4,8.1.4,11s-1.1,7.8-3.2,11.2c-2.1,3.4-5.3,6-9.6,7.9-4.2,1.9-9.6,2.9-16,2.9-11.7,0-20.5-2.1-26.5-6.4-6-4.3-9-10.3-9-17.9s1.4-9.3,4.3-13.1c2.9-3.7,7-6.7,12.4-8.8,5.4-2.1,11.8-3.2,19.3-3.2s15.4.9,22.4,2.6c7,1.7,13.3,3.9,19,6.6,5.7,2.7,10.8,5.6,15.3,8.6,4.5,3,8.3,5.7,11.4,8.2l-10.5,16.3c-3.5-3.3-7.4-6.6-11.7-9.8-4.3-3.2-9-6.1-14.1-8.8-5.1-2.6-10.5-4.7-16.2-6.3s-11.7-2.4-18-2.4-9,.9-11.7,2.6c-2.8,1.8-4.2,3.9-4.2,6.4s.6,3.5,1.8,4.8c1.2,1.4,2.9,2.4,5.1,3.1,2.2.7,5.1,1,8.5,1s4.9-.3,6.8-.9c1.9-.6,3.4-1.7,4.4-3.2,1.1-1.6,1.6-3.7,1.6-6.6s0-5.2-.2-9.2c-.1-4-.3-8.4-.5-13.2-.2-4.8-.4-9.6-.6-14.2-.2-4.7-.3-8.8-.3-12.4s0-7.2,0-11c0-3.8,0-7.7,0-11.4s0-7.3,0-10.4c0-3.2,0-5.8,0-7.8s0-3-.2-5c-.1-2-.4-3.7-.7-5h19.7ZM598.1,320.9c2.3.4,5.1.8,8.3,1.2,3.2.4,6.5.7,9.8.9,3.4.2,6.5.4,9.6.5,3,.1,5.5.2,7.4.2,9,0,17.2-.2,24.6-.6,7.3-.4,14.2-.9,20.6-1.5,6.4-.6,12.6-1.3,18.5-2v17.2c-5.2.6-10.1,1.1-14.8,1.5-4.7.4-9.5.7-14.4,1-4.9.3-10.2.5-15.8.6-5.6,0-12,.1-19,.1s-6.3,0-10.5-.2c-4.2-.1-8.4-.4-12.8-.7-4.3-.3-8.1-.6-11.5-1v-17.2ZM598.9,289.4c2.6.4,5.5.8,8.8,1.2,3.2.4,6.5.8,9.8,1.1,3.4.3,6.5.6,9.6.7,3,.1,5.6.2,7.9.2,9.9,0,19.8-.3,29.7-.9,9.9-.6,20.1-1.8,30.7-3.6v16.8c-5.1.7-10.8,1.3-17.4,1.9-6.5.6-13.4,1-20.8,1.4-7.3.3-14.7.5-22.1.5s-6.7-.1-11.2-.4c-4.4-.2-8.8-.6-13.2-1-4.4-.4-8.2-.8-11.4-1.2l-.4-16.6Z"/>
    <path class="cls-1" d="M717.6,294.5c4.7.8,9.7,1.4,15.2,2,5.4.5,10.5.8,15,.8s9.8-.1,15.4-.4c5.6-.3,11.5-.7,17.7-1.3,6.2-.6,12.5-1.3,18.7-2.3,6.3-.9,12.4-2,18.5-3.3l.3,17.4c-4.7.8-9.9,1.6-15.8,2.3-5.9.8-12,1.5-18.5,2.1-6.4.6-12.7,1.1-19,1.5-6.2.4-12,.6-17.2.6s-11-.1-16.1-.4c-5.1-.2-9.8-.6-14.2-.9v-18.1ZM768.5,277.4c-.8,2.5-1.4,5-2,7.5-.5,2.5-1,4.9-1.5,7.4-.5,2.3-1,5-1.7,8-.6,3-1.3,6.2-2,9.6-.7,3.4-1.5,6.7-2.3,10.1-.8,3.4-1.7,6.7-2.6,10-.9,3.3-1.7,6.2-2.5,9,5.9-3.3,11.8-5.7,17.6-7.1,5.8-1.4,12-2.1,18.5-2.1s14.8,1.3,20.6,3.9c5.9,2.6,10.5,6.3,13.7,10.9,3.3,4.7,4.9,10.1,4.9,16.3s-1.9,15.1-5.6,20.7c-3.7,5.6-9.1,10.1-16,13.3-7,3.2-15.3,5.3-24.9,6.1-9.7.9-20.4.7-32.2-.6l-5.1-18.8c8,1.4,15.8,2,23.4,2s14.5-.7,20.6-2.2c6.1-1.5,11-3.8,14.7-7.1,3.6-3.3,5.5-7.6,5.5-12.9s-1.8-8.1-5.5-11.3c-3.7-3.2-9.1-4.7-16.2-4.7s-16.2,1.5-23.3,4.4c-7.1,2.9-12.8,7.1-17.1,12.7-.7,1.1-1.3,2.1-2,3.1-.6,1-1.3,2.1-2.1,3.4l-17.2-6.1c2.7-5.3,5.3-11.2,7.6-17.9,2.3-6.7,4.4-13.5,6.3-20.3,1.8-6.8,3.4-13.1,4.5-19,1.2-5.9,2-10.7,2.5-14.4.5-3.1.8-5.8.9-7.9,0-2.2,0-4.4-.1-6.8l20.7.9Z"/>
    <path class="cls-1" d="M843.5,315.9c2.7-.5,5.7-1.2,9-2,3.3-.9,6.3-1.7,8.9-2.5,2.8-.9,6.6-2.1,11.5-3.6,4.8-1.5,10.1-3.1,15.9-4.7,5.8-1.6,11.7-2.9,17.9-4,6.1-1.1,11.8-1.6,17.1-1.6,8.8,0,16.8,1.6,23.9,4.9,7.1,3.3,12.7,8,16.9,14.3,4.2,6.3,6.3,13.9,6.3,23s-1.2,12.7-3.6,18.3c-2.4,5.6-6,10.6-10.7,15.2-4.7,4.5-10.4,8.4-17.1,11.7-6.7,3.3-14.4,5.9-23,7.9-8.7,1.9-18.1,3.2-28.3,3.6l-8.5-19.4c9.8-.2,19-1.1,27.6-2.6,8.6-1.6,16-3.9,22.5-6.9,6.4-3.1,11.4-6.9,15-11.6,3.6-4.7,5.4-10.2,5.4-16.6s-1-8.7-3.1-12.3c-2-3.6-5.1-6.5-9.1-8.6-4-2.1-9-3.2-14.8-3.2s-9,.5-14.1,1.5c-5.2,1-10.4,2.4-15.8,4-5.4,1.7-10.7,3.4-15.8,5.3-5.2,1.9-9.9,3.7-14.3,5.5-4.4,1.8-8.1,3.4-11.1,4.7l-8.3-20.4ZM950.5,276.4c1.3,1.8,2.6,3.8,4,6.3,1.4,2.4,2.8,4.9,4.2,7.3,1.4,2.4,2.5,4.6,3.4,6.4l-11.7,5.1c-1.6-3-3.4-6.5-5.5-10.4-2.1-3.9-4.1-7.2-6.1-10.1l11.7-4.7ZM967.7,269.8c1.3,1.8,2.6,4,4.2,6.4,1.5,2.4,2.9,4.8,4.3,7.2,1.4,2.4,2.5,4.4,3.4,6.2l-11.7,5c-1.5-3-3.3-6.4-5.5-10.3-2.2-3.8-4.3-7.1-6.2-9.8l11.5-4.7Z"/>
    <path class="cls-1" d="M1071.3,288.5c-2.3,1.7-4.6,3.4-6.9,5.2-2.2,1.8-4.2,3.4-5.8,4.9-2.4,1.8-5.3,4.1-8.7,6.8-3.4,2.7-6.9,5.4-10.5,8.3-3.6,2.9-7.2,5.7-10.6,8.4-3.4,2.7-6.3,5.2-8.8,7.3-2.5,2.2-4.2,4.1-5.1,5.5-.9,1.4-.9,2.8,0,4.2.9,1.4,2.7,3.2,5.3,5.5,2.1,1.8,4.9,4.1,8.2,6.9,3.4,2.7,7,5.7,10.9,9,3.9,3.3,8,6.6,12.1,10.1,4.1,3.5,8.1,6.9,12,10.2,3.8,3.4,7.3,6.5,10.3,9.4l-17.1,15.6c-4.1-4.6-8.3-9.1-12.7-13.6-2.2-2.2-5.1-5-8.7-8.2-3.6-3.3-7.4-6.7-11.5-10.3-4.1-3.6-8.2-7.2-12.3-10.7-4.1-3.5-7.8-6.7-11.1-9.6-4.9-4.1-8-7.8-9.4-11.2-1.4-3.4-1.2-6.8.6-10.1,1.8-3.4,5.1-7,10-11,2.9-2.2,6.2-4.9,9.9-7.9,3.7-3.1,7.5-6.2,11.4-9.5,3.9-3.3,7.6-6.4,11.1-9.5,3.5-3.1,6.5-5.8,8.9-8.1,2.1-2.1,4.3-4.3,6.4-6.6,2.1-2.2,3.7-4.2,4.8-5.8l17.1,15Z"/>
    <path class="cls-1" d="M1125.3,276.6c-.5,1.8-1,3.9-1.6,6.6-.6,2.6-1.2,5.4-1.8,8.2-.6,2.9-1.1,5.7-1.5,8.4-.4,2.7-.8,5.1-.9,7.1,1.8-2.9,3.8-5.8,6.3-8.5,2.4-2.8,5.2-5.3,8.2-7.6,3.1-2.3,6.4-4.1,10.1-5.5,3.6-1.4,7.5-2,11.6-2,6.8,0,12.9,2.1,18.4,6.3,5.4,4.2,9.7,10.2,12.9,17.9,3.2,7.8,4.7,17,4.7,27.7s-1.5,19.3-4.5,27.1c-3,7.7-7.3,14.3-13,19.8-5.6,5.4-12.4,9.9-20.2,13.3-7.8,3.5-16.6,6.1-26.2,7.8l-11.1-16.9c8.1-1.3,15.5-3,22.2-5.2,6.8-2.2,12.6-5.2,17.5-9,4.9-3.8,8.7-8.7,11.4-14.7,2.7-6,4-13.3,4-22.1s-.8-13.8-2.3-19c-1.6-5.2-3.8-9.2-6.8-11.9-3-2.7-6.5-4.1-10.6-4.1s-8.4,1.4-12.3,4.2c-3.9,2.8-7.4,6.5-10.4,11-3.1,4.5-5.5,9.4-7.3,14.7-1.8,5.2-2.8,10.3-3,15.2,0,2-.1,4.3,0,6.7,0,2.4.3,5.3.8,8.8l-17.9,1.2c-.4-2.8-.8-6.3-1.2-10.6-.4-4.2-.7-8.8-.7-13.8s.1-7,.4-10.9c.2-3.9.5-7.9.9-11.9.3-4,.8-8.1,1.3-12.2.5-4.1,1-8,1.5-11.7.4-2.8.7-5.6.9-8.3.2-2.7.3-5.1.3-7l20,.9Z"/>
    <path class="cls-1" d="M1205.8,306.5h47.7v15.9h-47.7v-15.9ZM1221.8,269.7h16.8v137h-16.8v-137ZM1257.5,332.3h14.6c-.2,11.2-.9,21.4-2.1,30.7-1.2,9.3-3.4,17.6-6.4,24.9-3.1,7.3-7.5,13.8-13.3,19.3-1-1.8-2.4-3.7-4.2-5.8-1.8-2.1-3.6-3.8-5.1-5.2,4.8-4.5,8.3-9.8,10.6-16,2.3-6.2,3.9-13.3,4.6-21.3.7-8,1.2-16.9,1.4-26.8ZM1245.3,345.8h36.6v13.3h-36.6v-13.3ZM1286.4,269.8h16.3c-.6,7.7-1.6,14.7-3.1,21.1-1.5,6.4-3.7,12.1-6.7,17.2-3,5.1-7.1,9.7-12.1,13.7-5.1,4-11.5,7.6-19.3,10.6-.8-1.8-2-4-3.8-6.3-1.8-2.4-3.4-4.3-5-5.8,6.9-2.3,12.5-5.1,16.7-8.3,4.2-3.2,7.5-6.9,9.8-11,2.3-4.1,4-8.8,5-13.9,1-5.2,1.7-10.9,2-17.2ZM1259.3,284.1h64v14h-64v-14ZM1277.4,345.8h13.9c0,2.8,0,4.7-.1,5.7-.2,10.9-.5,19.8-.8,26.6-.3,6.9-.8,12.1-1.4,15.7-.6,3.6-1.4,6.1-2.5,7.4-1.1,1.7-2.2,2.8-3.5,3.5-1.3.7-2.8,1.2-4.5,1.5-1.4.3-3.1.5-5.1.5-2,0-4.3,0-6.7,0,0-2.1-.4-4.5-1-7-.6-2.5-1.4-4.7-2.3-6.6,1.7,0,3.1.2,4.4.3,1.3,0,2.4.1,3.3.1s1.4-.1,2-.4c.5-.2,1-.7,1.4-1.4.6-.8,1-2.6,1.4-5.6.3-3,.7-7.5.9-13.6s.5-14.3.7-24.5v-2.3ZM1305.7,331.7h15c-.2,11.4-.9,21.7-2.2,30.9-1.3,9.2-3.5,17.5-6.6,24.7-3.2,7.2-7.8,13.6-13.9,19-.9-1.8-2.3-3.7-4.2-5.8-1.9-2.1-3.7-3.9-5.5-5.3,5.1-4.4,8.8-9.6,11.2-15.8,2.4-6.1,4-13.2,4.8-21.1.8-8,1.3-16.9,1.4-26.7ZM1294.2,345.8h37.3v13.3h-37.3v-13.3ZM1320.3,284.1h15.9c0,3-.2,5-.4,6-.6,7-1.2,12.8-1.8,17.4-.6,4.6-1.4,8.3-2.3,11-.9,2.7-1.9,4.8-3.1,6.1-1.5,1.7-3,2.8-4.7,3.4-1.7.6-3.6,1-5.8,1.2-1.8.3-4.1.5-7.1.5-3,0-6.2,0-9.6,0,0-2.3-.5-4.9-1.3-7.6-.8-2.7-1.8-5.1-3.1-7,2.8.2,5.5.3,8,.4,2.5,0,4.4.1,5.5.1s1.9,0,2.6-.2c.7-.1,1.4-.6,2-1.2,1.1-1.1,2-3.7,2.8-7.9.8-4.2,1.5-11,2.1-20.2v-2ZM1326.4,345.8h14.3c0,2.9,0,4.8-.1,5.7-.2,10.9-.5,19.7-.9,26.5-.4,6.8-.9,12-1.5,15.6s-1.4,6.1-2.5,7.5c-1.2,1.7-2.4,2.8-3.7,3.5-1.3.7-2.8,1.2-4.4,1.6-1.6.3-3.4.5-5.5.5-2.1,0-4.4,0-6.9,0,0-2.2-.5-4.7-1.2-7.3-.7-2.6-1.5-4.9-2.5-6.7,1.8.2,3.3.3,4.7.4,1.4,0,2.6,0,3.4,0s1.6-.1,2.1-.4c.5-.2,1-.7,1.4-1.4.6-.8,1-2.6,1.4-5.5.3-2.9.7-7.4.9-13.5.3-6.1.6-14.2.9-24.3v-2.3Z"/>
    <path class="cls-1" d="M1351.6,293.9h48.6v13.9h-48.6v-13.9ZM1357.2,354.6h13.7v50.2h-13.7v-50.2ZM1357.6,314.5h38.8v13.3h-38.8v-13.3ZM1357.6,334.5h38.8v13.1h-38.8v-13.1ZM1358.6,274.4h37.5v13.1h-37.5v-13.1ZM1365.6,354.6h30.6v44.2h-30.6v-13.7h16.6v-16.8h-16.6v-13.7ZM1398.6,373.4c6-.5,13.1-1.1,21.2-1.8,8.1-.7,16.4-1.5,24.9-2.4l.3,12.4c-7.8,1-15.6,1.9-23.4,2.8-7.8.9-15,1.7-21.4,2.4l-1.6-13.4ZM1399.6,352.1h87.5v12.7h-87.5v-12.7ZM1399.8,317.1h87.5v12.5h-87.5v-12.5ZM1436.5,330.8l8.9,10.2c-3.9,1.2-8.2,2.1-12.9,2.9-4.7.8-9.5,1.4-14.3,2-4.8.5-9.5.9-13.9,1.2-.2-1.5-.7-3.2-1.4-5.2-.7-2-1.4-3.7-2.1-5.2,4.2-.3,8.5-.7,12.8-1.3,4.4-.6,8.6-1.3,12.5-2,4-.8,7.4-1.7,10.4-2.6ZM1417.8,339h15.2v53.8c0,3.3-.4,5.9-1.2,7.7-.8,1.8-2.4,3.3-4.6,4.2-2.3.9-5.1,1.4-8.2,1.7-3.2.2-7,.4-11.4.4-.3-1.8-.8-3.9-1.6-6.3-.8-2.3-1.7-4.4-2.6-6.1,2.5,0,5,.1,7.4.1h4.8c1.6,0,2.3-.8,2.3-2.2v-53.4ZM1404.4,283.1h79.8v11.8h-79.8v-11.8ZM1408.9,300.3h70.7v10.9h-70.7v-10.9ZM1414.8,274.1l12.3-4.5c1.7,2.1,3.3,4.5,4.9,7.1,1.6,2.6,2.7,4.8,3.4,6.8l-13,4.8c-.6-1.9-1.6-4.3-3.1-6.9-1.5-2.7-3-5.1-4.5-7.2ZM1470.2,366.5l12,5.8c-3.1,4.7-6.9,9.1-11.2,13.3-4.4,4.2-9.1,7.9-14.2,11.2s-10.2,6-15.2,8.2c-.8-1.4-2-3-3.6-4.8-1.7-1.8-3.2-3.3-4.7-4.4,4.9-2,9.6-4.5,14.3-7.4s9-6.2,13-9.9c4-3.7,7.2-7.7,9.8-12ZM1435.1,286.3h16.8v36.3h-16.8v-36.3ZM1445.1,332.7h14.6c0,12.8.5,23.8,1.8,33,1.3,9.1,3.2,16.1,5.5,20.9,2.4,4.8,5.2,7.2,8.4,7.2s2-1,2.7-2.9c.7-1.9,1.2-4.9,1.4-8.9,1.5,1.4,3.1,2.6,5,3.6,1.8,1,3.6,1.9,5.3,2.6-1.1,7.1-2.8,12.1-5.3,14.9-2.5,2.9-6,4.3-10.6,4.3s-10-1.8-13.6-5.5c-3.6-3.7-6.5-8.9-8.6-15.6-2.1-6.7-3.7-14.6-4.7-23.7-1-9.1-1.6-19-1.8-29.8ZM1460.1,269.7l15.3,3.8c-1.9,2.7-3.8,5.3-5.6,7.8-1.8,2.5-3.4,4.6-4.9,6.5l-12-3.6c1.2-2.1,2.5-4.5,3.9-7.2,1.4-2.7,2.5-5.1,3.3-7.2ZM1461.3,338.7l9.9-6.9c2.8,1.8,5.6,4,8.5,6.5,2.8,2.5,5,4.8,6.6,6.9l-10.6,7.7c-1.4-2.1-3.4-4.5-6.2-7.2-2.8-2.7-5.5-5-8.1-7.1Z"/>
    <path class="cls-1" d="M1565.9,286.8c-3.9,5.5-8.9,11.2-15,17-6.1,5.8-12.9,11.3-20.4,16.4-7.5,5.2-15.3,9.7-23.3,13.6-.6-1.5-1.5-3.1-2.7-4.9-1.2-1.8-2.5-3.5-3.8-5.3-1.3-1.7-2.6-3.2-3.9-4.4,8.4-3.7,16.4-8.3,24.1-13.8,7.7-5.5,14.6-11.3,20.6-17.5,6.1-6.2,10.9-12.1,14.5-17.9h18.4c3.9,5.3,8.2,10.4,13,15.2,4.8,4.8,9.8,9.1,15.2,13.1,5.3,3.9,10.9,7.4,16.6,10.5,5.7,3.1,11.4,5.7,17.3,7.8-2.1,2.1-4.2,4.7-6.1,7.6-1.9,2.9-3.7,5.7-5.3,8.3-7.3-3.4-14.7-7.6-22.2-12.5-7.5-5-14.5-10.3-20.9-16-6.5-5.7-11.8-11.4-16-17.1ZM1505.9,341.9h121.2v16.3h-121.2v-16.3ZM1506.7,385.2c8.7-.3,18.7-.6,30.1-.9,11.4-.3,23.4-.8,36-1.2,12.6-.5,25-1,37.3-1.5l-.6,16c-11.9.7-23.9,1.3-36.1,1.8-12.2.5-23.8,1.1-34.8,1.6-11,.5-20.9,1-29.8,1.4l-2.2-17.2ZM1541.5,352.5l20,5.4c-2.2,4.6-4.6,9.2-7.1,13.9-2.5,4.7-4.9,9.2-7.3,13.5-2.4,4.3-4.6,8.1-6.8,11.4l-15.3-5.1c1.9-3.6,4-7.7,6.1-12.2,2.1-4.5,4.1-9.1,5.9-13.9,1.8-4.7,3.3-9.1,4.4-13.1ZM1531.9,313.7h68.4v16h-68.4v-16ZM1577.8,367.6l15.3-8.2c4.4,3.8,8.7,7.9,13,12.3,4.3,4.4,8.2,8.8,11.8,13.2,3.6,4.4,6.5,8.5,8.8,12.2l-16.3,9.9c-1.9-3.7-4.7-7.9-8.2-12.5-3.6-4.6-7.4-9.3-11.7-14.1-4.2-4.8-8.4-9-12.6-12.8Z"/>
  </g>
</svg>