<?xml version="1.0" encoding="UTF-8"?>
<svg id="_レイヤー_1" data-name="レイヤー 1" xmlns="http://www.w3.org/2000/svg" viewBox="0 0 557.18 557.18">
  <defs>
    <style>
      .cls-1 {
        fill: #0d7a89;
      }

      .cls-1, .cls-2 {
        stroke-width: 0px;
      }

      .cls-2 {
        fill: #fff;
      }
    </style>
  </defs>
  <circle class="cls-1" cx="278.59" cy="278.59" r="278.59"/>
  <path class="cls-2" d="M107.09,201.78c-3.05,3.86-10.16,3.45-16.26-1.02s-23.17-28.04-23.17-28.04c0,0,27.84,9.14,33.94,13.82s8.53,11.38,5.69,15.44l-.2-.2Z"/>
  <path class="cls-2" d="M93.88,249.94c-3.66,4.88-11.79,4.67-18.49,0-6.5-4.88-24.38-31.29-24.38-31.29,0,0,30.89,8.94,37.39,13.82s8.94,12.8,5.28,17.68l.2-.2Z"/>
  <path class="cls-2" d="M97.74,286c-2.44,5.69-3.05,10.57-3.25,13.41,0,4.06.41,7.92,1.42,14.63.41,2.84,1.02,5.89,1.02,5.89.2,1.22.41,1.83.61,2.64.81,3.45,1.83,5.89,2.24,6.5,2.44,6.91,3.45,13.01,3.66,15.24,2.03,15.04-8.53,29.46-10.16,31.7-6.3,8.53-13.41,12.4-15.44,13.41-10.36,5.28-19.3,3.66-22.76,3.05-3.25-.61-11.99-2.24-19.51-10.36-2.64-2.64-9.75-11.38-10.97-25.6-.41-4.67-1.42-18.09,7.11-29.67,1.63-2.24,8.74-10.97,20.12-12.19,1.22,0,11.99-1.02,20.12,7.72,1.63,1.63,5.28,5.89,6.71,13.01.41,2.24,1.42,7.72-1.02,14.02-.81,2.24-2.84,7.32-7.32,9.75-2.64,1.22-5.08,1.22-7.52,1.02-3.25-.2-4.67-1.22-6.3-1.42,0,0-.61,0-.81-.2,0,0,1.83-1.42,3.05-2.24.2,0,5.08-3.05,6.5-6.91,1.42-4.06-.81-9.75-4.27-12.4-3.66-2.84-8.74-2.64-12.19,0-6.71,4.88-7.72,19.71-1.83,28.04,5.89,8.74,16.66,7.32,17.88,7.11,11.38-1.83,17.48-13.61,18.49-15.44,3.45-6.5,3.66-12.8,3.86-16.26.61-9.96-2.64-12.4-3.45-26.62-.41-6.71-.41-9.96,1.02-14.02,2.24-5.89,7.72-11.18,13.01-13.82h.2"/>
  <path class="cls-2" d="M280.56,310.43v-24.22h-19.61c.55-11.43,1.07-24.11,1.56-38.06.16-1.15.25-2.6.25-4.33s.08-4.08.25-7.04h-119.31c3.53-5.47,6.94-11.4,10.24-17.8h121.67v-23.73h-110.89c3.03-7.66,5.73-15.48,8.07-23.48l-25.95-5.68c-3.95,14.34-9.39,28.18-16.31,41.52s-14.83,24.31-23.73,32.87c2.14,1.15,4.65,2.68,7.54,4.57,2.88,1.9,5.69,3.79,8.4,5.69,2.72,1.9,4.9,3.58,6.55,5.07,3.94-4.38,7.75-9.25,11.45-14.6-.91,9.56-2.01,19.57-3.29,30.05-.61,4.98-1.24,9.97-1.88,14.95h-25.06v24.22h21.85c-1.53,11.08-3.13,21.76-4.79,32.01-1.82,11.12-3.63,20.97-5.44,29.54l25.21,1.98c.62-3.66,1.27-7.54,1.93-11.62h79.75c-1.21,4.63-2.48,7.85-3.82,9.64-1.15,1.48-2.43,2.47-3.83,2.97-1.4.49-3.17.74-5.31.74-2.47,0-6.06-.04-10.75-.12-4.7-.08-9.93-.37-15.69-.86,1.81,2.97,3.34,6.51,4.57,10.63,1.24,4.12,1.93,7.82,2.1,11.12,6.09.33,11.95.49,17.55.49s10.21-.25,13.84-.74c3.95-.66,7.45-1.69,10.5-3.09,3.05-1.4,5.89-3.92,8.53-7.54,1.98-2.64,3.79-6.92,5.44-12.85.81-2.9,1.56-6.37,2.27-10.38h23.68v-22.74h-20.73c.82-8.33,1.57-18.05,2.27-29.17h20.93ZM208.41,286.21c.41-4.52.81-9.05,1.21-13.59.39-4.48.75-8.84,1.1-13.1h27c-.34,9.61-.71,18.52-1.11,26.69h-28.2ZM161.67,272.12c.51-4.28,1-8.46,1.47-12.61h24.8c-.29,4.1-.6,8.3-.94,12.61-.37,4.68-.77,9.37-1.2,14.09h-25.85c.58-4.7,1.15-9.39,1.71-14.09ZM183.35,310.43c-.66,5.99-1.34,11.81-2.03,17.43-.51,4.13-1.01,8.04-1.51,11.74h-26.93c1.41-9.27,2.76-19,4.06-29.17h26.41ZM232.98,337.62c-.07.68-.15,1.32-.22,1.98h-29.96c.46-3.58.92-7.36,1.39-11.37.66-5.72,1.3-11.67,1.92-17.8h29.13c-.71,10.64-1.46,19.7-2.26,27.19Z"/>
  <polygon class="cls-2" points="399.51 332.53 346.35 151.31 293.2 332.53 341.08 332.53 331.68 409.13 361.02 409.13 351.63 332.53 399.51 332.53"/>
  <polygon class="cls-2" points="508.44 332.53 455.28 151.31 402.13 332.53 450.01 332.53 440.61 409.13 469.95 409.13 460.56 332.53 508.44 332.53"/>
</svg>